<svg xmlns="http://www.w3.org/2000/svg" xmlns:xlink="http://www.w3.org/1999/xlink" zoomAndPan="magnify" viewBox="0 0 839.25 156.749997"  preserveAspectRatio="xMidYMid meet" version="1.0"><defs><clipPath id="54ad01ab93"><path d="M 0.292969 19 L 138 19 L 138 41 L 0.292969 41 Z M 0.292969 19 " clip-rule="nonzero"/></clipPath><clipPath id="7d7da06231"><path d="M 692 19 L 830.71875 19 L 830.71875 41 L 692 41 Z M 692 19 " clip-rule="nonzero"/></clipPath><clipPath id="dd3f3fa982"><path d="M 405 9.476562 L 426 9.476562 L 426 57 L 405 57 Z M 405 9.476562 " clip-rule="nonzero"/></clipPath><clipPath id="98aa7162b6"><path d="M 409 122 L 422 122 L 422 146.507812 L 409 146.507812 Z M 409 122 " clip-rule="nonzero"/></clipPath></defs><path fill="#ffffff" d="M 248.839844 83.460938 C 252.535156 82.511719 256.199219 81.53125 259.820312 80.511719 C 263.441406 79.5 267.019531 78.464844 270.558594 77.445312 C 274.097656 76.425781 277.582031 75.453125 281.046875 74.480469 C 287.972656 72.515625 294.640625 70.53125 301.089844 68.957031 C 304.3125 68.15625 307.488281 67.5 310.589844 66.9375 C 313.691406 66.382812 316.730469 66.007812 319.679688 65.753906 C 325.417969 65.335938 330.851562 65.554688 335.71875 66.480469 C 336.136719 66.664062 336.554688 66.847656 336.957031 67.027344 C 338.648438 67.800781 340.175781 68.503906 341.515625 69.113281 C 342.871094 69.710938 344.035156 70.230469 344.980469 70.660156 C 346.171875 71.140625 347.035156 71.484375 347.519531 71.6875 C 347.527344 71.667969 347.539062 71.648438 347.554688 71.632812 C 347.101562 71.378906 346.289062 70.914062 345.164062 70.285156 C 344.597656 69.957031 343.953125 69.574219 343.234375 69.15625 C 343.144531 69.066406 343.042969 68.957031 342.90625 68.8125 C 342.796875 68.691406 342.667969 68.558594 342.523438 68.410156 C 342.6875 68.476562 342.859375 68.539062 343.023438 68.601562 C 344.789062 69.355469 346.371094 70.304688 347.664062 71.433594 C 347.691406 71.386719 347.71875 71.351562 347.738281 71.3125 C 347.875 71.050781 348.039062 70.820312 348.210938 70.613281 C 346.875 69.394531 345.253906 68.375 343.46875 67.546875 C 342.460938 67.082031 341.394531 66.671875 340.304688 66.308594 C 338.859375 65.035156 336.890625 63.472656 334.410156 61.84375 C 334.027344 61.597656 333.636719 61.339844 333.234375 61.078125 C 332.824219 60.832031 332.40625 60.578125 331.980469 60.324219 C 331.132812 59.796875 330.214844 59.3125 329.277344 58.792969 C 327.375 57.800781 325.308594 56.785156 323.0625 55.882812 C 320.816406 54.980469 318.40625 54.144531 315.828125 53.5 C 314.546875 53.171875 313.199219 52.90625 311.84375 52.707031 C 311.171875 52.617188 310.488281 52.535156 309.796875 52.445312 C 309.105469 52.363281 308.414062 52.324219 307.714844 52.261719 C 302.546875 51.898438 297.660156 52.199219 293.183594 52.734375 C 293.601562 52.726562 294.011719 52.734375 294.429688 52.714844 C 294.3125 53.152344 294.195312 53.597656 294.074219 54.035156 C 293.320312 54.199219 292.574219 54.371094 291.820312 54.519531 C 290.738281 54.746094 289.644531 54.925781 288.554688 55.128906 C 288.007812 55.226562 287.460938 55.300781 286.90625 55.382812 C 286.359375 55.457031 285.816406 55.554688 285.261719 55.617188 C 284.160156 55.738281 283.058594 55.890625 281.949219 55.964844 C 281.394531 56 280.847656 56.066406 280.292969 56.09375 C 279.738281 56.109375 279.183594 56.136719 278.628906 56.15625 C 278.355469 56.164062 278.070312 56.183594 277.800781 56.183594 L 276.972656 56.183594 C 276.617188 56.183594 276.269531 56.183594 275.925781 56.183594 C 274.878906 56.464844 273.921875 56.746094 273.078125 56.992188 C 271.394531 57.300781 269.320312 57.648438 266.964844 58.210938 C 264.597656 58.765625 261.921875 59.414062 259.003906 60.140625 C 256.117188 60.996094 252.988281 61.953125 249.695312 62.996094 C 246.445312 64.171875 243 65.371094 239.496094 66.765625 C 236.929688 67.8125 234.429688 68.847656 232.015625 69.867188 C 229.570312 70.921875 227.3125 72.140625 225.210938 73.316406 C 223.128906 74.507812 221.144531 75.636719 219.289062 76.691406 C 217.441406 77.738281 215.703125 78.664062 214.09375 79.464844 C 210.871094 81.046875 208.125 82.011719 206.179688 82.496094 C 205.6875 82.605469 205.257812 82.722656 204.875 82.796875 C 204.496094 82.859375 204.167969 82.90625 203.914062 82.949219 C 203.382812 83.03125 203.113281 83.078125 203.113281 83.078125 C 203.113281 83.078125 203.394531 83.070312 203.921875 83.058594 C 204.183594 83.050781 204.523438 83.042969 204.914062 83.03125 C 205.304688 83.003906 205.75 82.949219 206.261719 82.894531 C 208.28125 82.660156 211.191406 81.996094 214.613281 80.675781 C 216.3125 80.011719 218.160156 79.210938 220.097656 78.292969 C 222.035156 77.371094 224.082031 76.34375 226.222656 75.289062 C 228.367188 74.234375 230.597656 73.140625 232.964844 72.207031 C 235.382812 71.257812 237.886719 70.265625 240.433594 69.230469 C 243.917969 67.875 247.292969 66.554688 250.488281 65.308594 C 253.714844 64.164062 256.753906 63.042969 259.566406 61.996094 C 262.40625 61.078125 265 60.222656 267.289062 59.449219 C 269.582031 58.667969 271.601562 58.113281 273.230469 57.613281 C 276.589844 57.019531 281.484375 56.210938 287.390625 55.539062 C 293.285156 54.910156 300.226562 54.390625 307.53125 54.910156 C 308.207031 54.964844 308.871094 55 309.535156 55.074219 C 310.1875 55.15625 310.84375 55.226562 311.5 55.300781 C 312.792969 55.472656 314.039062 55.699219 315.273438 55.972656 C 317.742188 56.519531 320.097656 57.230469 322.308594 57.984375 C 324.527344 58.738281 326.59375 59.605469 328.511719 60.433594 C 329.460938 60.878906 330.394531 61.277344 331.261719 61.714844 C 331.699219 61.933594 332.125 62.140625 332.542969 62.351562 C 332.953125 62.570312 333.363281 62.789062 333.753906 62.996094 C 335.5625 63.960938 337.128906 64.898438 338.449219 65.753906 C 337.785156 65.574219 337.121094 65.398438 336.4375 65.246094 C 333.371094 63.589844 329.6875 61.832031 325.347656 60.648438 C 324.746094 60.449219 324.128906 60.339844 323.5 60.1875 C 322.871094 60.050781 322.246094 59.886719 321.605469 59.769531 C 320.316406 59.558594 319.003906 59.277344 317.648438 59.140625 C 314.957031 58.757812 312.136719 58.648438 309.261719 58.621094 C 301.425781 58.628906 294.210938 59.894531 288.144531 61.152344 C 285.105469 61.789062 282.359375 62.453125 279.929688 63.035156 C 278.71875 63.335938 277.582031 63.605469 276.542969 63.890625 C 275.507812 64.179688 274.558594 64.445312 273.707031 64.691406 C 272.832031 64.835938 271.867188 65 270.804688 65.179688 C 269.746094 65.410156 268.609375 65.664062 267.390625 65.9375 C 264.933594 66.445312 262.203125 67.210938 259.203125 68.027344 C 253.234375 69.75 246.355469 72.097656 239.09375 74.742188 C 233.753906 76.707031 228.667969 78.566406 224.039062 80.039062 C 219.351562 81.347656 215.074219 82.378906 211.417969 82.886719 C 209.589844 83.140625 207.941406 83.46875 206.476562 83.550781 C 205.003906 83.667969 203.703125 83.804688 202.675781 84.132812 C 202.339844 84.234375 202.046875 84.359375 201.773438 84.496094 C 201.375 84.46875 200.964844 84.441406 200.5625 84.414062 C 199.644531 84.332031 198.726562 84.25 197.808594 84.179688 L 196.433594 84.050781 L 195.070312 83.894531 C 194.167969 83.789062 193.25 83.707031 192.359375 83.570312 C 188.765625 83.085938 185.261719 82.394531 181.894531 81.476562 C 181.476562 81.359375 181.058594 81.238281 180.640625 81.113281 C 180.21875 80.992188 179.800781 80.886719 179.394531 80.730469 C 178.574219 80.449219 177.765625 80.167969 176.953125 79.882812 C 176.164062 79.554688 175.371094 79.238281 174.589844 78.910156 C 174.1875 78.757812 173.816406 78.574219 173.433594 78.382812 C 173.050781 78.199219 172.667969 78.019531 172.296875 77.835938 C 171.921875 77.644531 171.53125 77.480469 171.167969 77.273438 C 170.804688 77.074219 170.429688 76.863281 170.066406 76.664062 C 169.339844 76.253906 168.601562 75.863281 167.910156 75.398438 C 167.210938 74.945312 166.5 74.523438 165.828125 74.050781 C 165.152344 73.570312 164.488281 73.097656 163.816406 72.613281 C 163.480469 72.386719 163.160156 72.125 162.84375 71.867188 C 162.523438 71.613281 162.207031 71.359375 161.886719 71.105469 C 161.570312 70.847656 161.25 70.59375 160.933594 70.347656 C 160.613281 70.09375 160.3125 69.820312 160.011719 69.558594 C 159.402344 69.03125 158.792969 68.492188 158.195312 67.972656 C 157.902344 67.710938 157.640625 67.445312 157.355469 67.175781 C 157.074219 66.910156 156.800781 66.644531 156.546875 66.363281 C 156.28125 66.089844 156.027344 65.808594 155.765625 65.535156 C 155.511719 65.253906 155.273438 64.964844 155.019531 64.679688 C 154.519531 64.117188 154.074219 63.507812 153.617188 62.925781 C 152.742188 61.722656 151.917969 60.503906 151.222656 59.230469 C 150.496094 57.976562 149.90625 56.675781 149.351562 55.390625 C 148.839844 54.082031 148.367188 52.789062 148.039062 51.46875 C 147.675781 50.167969 147.449219 48.859375 147.25 47.578125 C 147.183594 46.929688 147.101562 46.292969 147.066406 45.65625 C 147.046875 45.019531 146.984375 44.402344 147.011719 43.78125 C 147.019531 41.308594 147.359375 38.949219 147.96875 36.8125 C 148.578125 34.664062 149.449219 32.738281 150.476562 31.042969 C 151.507812 29.351562 152.6875 27.90625 153.890625 26.667969 C 155.074219 25.402344 156.4375 24.339844 157.828125 23.328125 C 158.183594 23.09375 158.546875 22.847656 158.902344 22.609375 C 159.085938 22.484375 159.257812 22.375 159.441406 22.28125 L 159.976562 21.972656 C 160.324219 21.753906 160.703125 21.582031 161.078125 21.402344 L 161.632812 21.128906 L 162.207031 20.890625 C 163.734375 20.246094 165.328125 19.753906 166.957031 19.417969 C 168.585938 19.082031 170.230469 18.851562 171.878906 18.78125 C 175.179688 18.617188 178.464844 18.898438 181.605469 19.554688 C 183.175781 19.882812 184.714844 20.28125 186.199219 20.789062 C 186.945312 21.027344 187.671875 21.320312 188.390625 21.589844 C 188.753906 21.726562 189.101562 21.902344 189.457031 22.046875 C 189.808594 22.203125 190.164062 22.347656 190.5 22.527344 C 196.035156 25.140625 200.535156 29.125 203.113281 33.800781 C 203.257812 34.101562 203.410156 34.394531 203.558594 34.691406 L 203.777344 35.128906 L 203.957031 35.585938 C 204.085938 35.886719 204.203125 36.183594 204.332031 36.484375 C 204.429688 36.792969 204.53125 37.09375 204.632812 37.394531 L 204.777344 37.851562 C 204.824219 38.003906 204.847656 38.160156 204.886719 38.3125 C 204.957031 38.625 205.03125 38.921875 205.105469 39.234375 C 205.160156 39.542969 205.203125 39.851562 205.25 40.152344 L 205.324219 40.605469 C 205.339844 40.761719 205.351562 40.917969 205.359375 41.0625 C 205.386719 41.371094 205.40625 41.671875 205.433594 41.972656 C 205.433594 42.273438 205.433594 42.582031 205.433594 42.882812 L 205.433594 43.335938 L 205.394531 43.78125 C 205.367188 44.082031 205.351562 44.375 205.324219 44.664062 C 205.277344 44.957031 205.230469 45.246094 205.1875 45.539062 C 205.160156 45.683594 205.140625 45.828125 205.113281 45.964844 L 205.011719 46.382812 C 204.949219 46.667969 204.875 46.949219 204.8125 47.222656 C 204.722656 47.496094 204.640625 47.765625 204.550781 48.03125 C 204.503906 48.167969 204.46875 48.304688 204.421875 48.429688 L 204.265625 48.824219 C 204.167969 49.085938 204.058594 49.339844 203.957031 49.597656 C 203.839844 49.839844 203.710938 50.085938 203.59375 50.332031 L 203.410156 50.695312 C 203.347656 50.816406 203.277344 50.933594 203.210938 51.050781 C 203.074219 51.289062 202.9375 51.515625 202.800781 51.753906 C 202.65625 51.980469 202.503906 52.1875 202.355469 52.40625 C 202.074219 52.851562 201.730469 53.246094 201.410156 53.644531 C 200.101562 55.226562 198.554688 56.429688 196.996094 57.320312 C 195.433594 58.203125 193.824219 58.75 192.304688 59.023438 C 190.785156 59.285156 189.335938 59.339844 188.054688 59.175781 C 187.890625 59.160156 187.734375 59.148438 187.582031 59.132812 C 187.425781 59.105469 187.273438 59.078125 187.125 59.050781 C 186.824219 58.996094 186.527344 58.949219 186.242188 58.894531 C 186.078125 58.847656 185.917969 58.8125 185.761719 58.765625 C 188.390625 57.921875 190.355469 55.484375 190.5 52.507812 C 190.683594 48.714844 187.835938 45.511719 184.140625 45.355469 C 180.4375 45.191406 177.300781 48.140625 177.109375 51.925781 C 176.945312 55.320312 179.210938 58.230469 182.339844 58.921875 C 182.476562 59.011719 182.613281 59.113281 182.769531 59.214844 C 183.1875 59.441406 183.632812 59.675781 184.113281 59.941406 C 184.613281 60.175781 185.171875 60.394531 185.769531 60.640625 C 186.078125 60.730469 186.398438 60.832031 186.726562 60.933594 C 186.890625 60.976562 187.054688 61.03125 187.226562 61.085938 C 187.398438 61.132812 187.570312 61.160156 187.753906 61.195312 C 189.171875 61.542969 190.828125 61.660156 192.621094 61.503906 C 194.421875 61.351562 196.371094 60.859375 198.300781 59.941406 C 200.226562 59.023438 202.164062 57.695312 203.839844 55.890625 C 204.25 55.4375 204.6875 54.980469 205.058594 54.464844 C 205.25 54.207031 205.449219 53.964844 205.640625 53.699219 C 205.8125 53.425781 205.996094 53.164062 206.179688 52.890625 C 206.269531 52.753906 206.359375 52.617188 206.441406 52.480469 L 206.6875 52.042969 C 206.851562 51.753906 207.007812 51.460938 207.167969 51.160156 C 207.316406 50.851562 207.453125 50.542969 207.597656 50.234375 L 207.804688 49.769531 C 207.871094 49.605469 207.925781 49.449219 207.988281 49.285156 C 208.105469 48.960938 208.226562 48.632812 208.351562 48.304688 C 208.453125 47.96875 208.550781 47.628906 208.644531 47.285156 L 208.789062 46.765625 C 208.835938 46.59375 208.863281 46.410156 208.898438 46.238281 C 208.972656 45.882812 209.042969 45.527344 209.117188 45.175781 C 209.164062 44.808594 209.207031 44.445312 209.253906 44.082031 L 209.316406 43.527344 L 209.34375 42.972656 C 209.363281 42.597656 209.371094 42.226562 209.390625 41.84375 C 209.371094 41.472656 209.363281 41.089844 209.34375 40.707031 C 209.335938 40.515625 209.335938 40.324219 209.316406 40.132812 L 209.253906 39.5625 C 209.207031 39.179688 209.164062 38.796875 209.109375 38.414062 C 209.035156 38.03125 208.953125 37.648438 208.878906 37.269531 C 208.84375 37.078125 208.808594 36.886719 208.761719 36.695312 L 208.597656 36.128906 C 208.488281 35.75 208.378906 35.375 208.269531 34.992188 C 208.132812 34.621094 207.996094 34.246094 207.851562 33.875 L 207.644531 33.308594 L 207.398438 32.765625 C 207.222656 32.398438 207.058594 32.035156 206.886719 31.671875 C 206.132812 30.261719 205.304688 28.84375 204.285156 27.558594 C 203.804688 26.886719 203.25 26.285156 202.710938 25.648438 C 202.429688 25.339844 202.136719 25.050781 201.847656 24.75 C 201.554688 24.449219 201.265625 24.148438 200.957031 23.875 C 200.644531 23.59375 200.335938 23.3125 200.027344 23.027344 C 199.699219 22.765625 199.382812 22.5 199.054688 22.226562 L 198.5625 21.828125 L 198.054688 21.457031 C 197.707031 21.210938 197.371094 20.953125 197.023438 20.710938 C 196.671875 20.480469 196.316406 20.246094 195.953125 20.007812 L 195.414062 19.664062 L 194.859375 19.34375 C 194.488281 19.125 194.121094 18.90625 193.742188 18.699219 C 193.359375 18.5 192.976562 18.296875 192.59375 18.097656 C 192.210938 17.886719 191.820312 17.714844 191.421875 17.535156 C 191.03125 17.351562 190.628906 17.160156 190.230469 16.996094 C 189.417969 16.667969 188.609375 16.324219 187.78125 16.042969 C 186.125 15.441406 184.40625 14.960938 182.648438 14.566406 C 179.136719 13.785156 175.453125 13.414062 171.675781 13.566406 C 169.792969 13.640625 167.882812 13.875 165.972656 14.257812 C 164.0625 14.632812 162.152344 15.203125 160.285156 15.988281 L 159.585938 16.277344 L 158.894531 16.613281 C 158.441406 16.84375 157.976562 17.050781 157.53125 17.324219 L 156.855469 17.707031 C 156.628906 17.835938 156.410156 17.960938 156.203125 18.105469 C 155.78125 18.390625 155.363281 18.660156 154.945312 18.945312 C 153.300781 20.125 151.679688 21.402344 150.242188 22.921875 C 148.796875 24.421875 147.359375 26.1875 146.101562 28.261719 C 144.847656 30.335938 143.78125 32.726562 143.054688 35.347656 C 141.597656 40.589844 141.507812 46.765625 143.226562 52.824219 C 143.628906 54.355469 144.183594 55.847656 144.792969 57.347656 C 145.4375 58.820312 146.136719 60.3125 146.984375 61.742188 C 147.804688 63.1875 148.75 64.570312 149.769531 65.925781 C 150.296875 66.589844 150.816406 67.273438 151.386719 67.910156 C 151.671875 68.230469 151.953125 68.566406 152.242188 68.875 C 152.542969 69.183594 152.84375 69.492188 153.144531 69.804688 C 153.445312 70.121094 153.761719 70.414062 154.082031 70.714844 C 154.398438 71.003906 154.71875 71.3125 155.035156 71.605469 C 155.683594 72.152344 156.328125 72.707031 156.984375 73.261719 C 157.3125 73.535156 157.628906 73.824219 157.964844 74.089844 C 158.3125 74.351562 158.648438 74.617188 158.996094 74.878906 C 159.339844 75.144531 159.6875 75.40625 160.03125 75.679688 C 160.378906 75.945312 160.722656 76.21875 161.085938 76.464844 C 161.804688 76.964844 162.535156 77.472656 163.261719 77.972656 C 164 78.464844 164.773438 78.917969 165.535156 79.394531 C 166.292969 79.882812 167.09375 80.300781 167.890625 80.730469 C 168.292969 80.949219 168.691406 81.15625 169.09375 81.375 C 169.492188 81.59375 169.914062 81.765625 170.332031 81.96875 C 170.75 82.160156 171.160156 82.351562 171.578125 82.550781 C 171.996094 82.75 172.40625 82.941406 172.84375 83.097656 C 173.695312 83.433594 174.5625 83.769531 175.417969 84.105469 C 176.289062 84.398438 177.171875 84.6875 178.0625 84.980469 C 178.5 85.132812 178.957031 85.242188 179.402344 85.371094 C 179.847656 85.488281 180.300781 85.617188 180.75 85.734375 C 184.359375 86.664062 188.0625 87.335938 191.800781 87.773438 C 192.738281 87.898438 193.675781 87.964844 194.613281 88.074219 L 196.023438 88.207031 L 197.433594 88.308594 C 198.371094 88.371094 199.316406 88.445312 200.265625 88.507812 C 201.210938 88.554688 202.15625 88.601562 203.101562 88.644531 C 204.050781 88.699219 204.996094 88.726562 205.941406 88.753906 C 206.886719 88.78125 207.84375 88.820312 208.789062 88.847656 C 209.753906 88.847656 210.71875 88.855469 211.683594 88.855469 L 213.128906 88.855469 C 213.609375 88.855469 214.09375 88.820312 214.574219 88.808594 C 215.539062 88.773438 216.503906 88.726562 217.476562 88.691406 C 218.441406 88.644531 219.40625 88.546875 220.371094 88.472656 C 222.300781 88.34375 224.21875 88.089844 226.148438 87.871094 C 227.113281 87.761719 228.058594 87.597656 229.023438 87.460938 C 229.980469 87.316406 230.941406 87.199219 231.890625 87.015625 C 233.792969 86.679688 235.703125 86.363281 237.585938 85.960938 C 241.398438 85.277344 245.128906 84.378906 248.839844 83.460938 Z M 341.933594 68.164062 C 342.296875 68.449219 342.597656 68.691406 342.832031 68.882812 C 342.878906 68.921875 342.90625 68.949219 342.953125 68.976562 C 342.617188 68.773438 342.261719 68.566406 341.898438 68.347656 C 341.613281 68.183594 341.324219 68.011719 341.03125 67.835938 C 341.332031 67.9375 341.640625 68.054688 341.933594 68.164062 Z M 231.40625 83.476562 C 230.46875 83.640625 229.53125 83.734375 228.597656 83.859375 C 227.660156 83.96875 226.722656 84.125 225.785156 84.207031 C 223.910156 84.378906 222.035156 84.605469 220.160156 84.6875 C 219.226562 84.742188 218.289062 84.816406 217.359375 84.851562 C 216.421875 84.871094 215.496094 84.898438 214.558594 84.914062 C 214.09375 84.925781 213.621094 84.941406 213.15625 84.941406 L 211.765625 84.914062 C 210.835938 84.898438 209.910156 84.878906 208.980469 84.859375 C 208.042969 84.816406 207.105469 84.769531 206.167969 84.722656 C 205.230469 84.679688 204.304688 84.632812 203.375 84.570312 C 203.15625 84.550781 202.9375 84.542969 202.71875 84.523438 C 202.746094 84.515625 202.765625 84.515625 202.792969 84.507812 C 203.792969 84.304688 205.039062 84.316406 206.515625 84.359375 C 208.007812 84.433594 209.699219 84.261719 211.5625 84.179688 C 215.3125 83.988281 219.742188 83.277344 224.601562 82.175781 C 229.441406 80.902344 234.609375 79.183594 239.960938 77.21875 C 247.246094 74.5625 253.980469 71.949219 259.777344 69.847656 C 262.6875 68.847656 265.34375 67.863281 267.71875 67.144531 C 268.902344 66.765625 270.011719 66.410156 271.03125 66.074219 C 272.058594 65.78125 273.003906 65.519531 273.851562 65.28125 C 274.714844 65.136719 275.679688 64.972656 276.734375 64.789062 C 277.789062 64.617188 278.945312 64.453125 280.175781 64.261719 C 282.640625 63.898438 285.421875 63.460938 288.460938 63.023438 C 294.550781 62.179688 301.664062 61.242188 309.253906 61.242188 C 312.035156 61.269531 314.757812 61.339844 317.367188 61.632812 C 318.679688 61.722656 319.941406 61.960938 321.199219 62.113281 C 321.816406 62.214844 322.433594 62.34375 323.035156 62.441406 C 323.636719 62.5625 324.253906 62.644531 324.828125 62.796875 C 326.566406 63.179688 328.222656 63.652344 329.785156 64.164062 C 326.539062 63.851562 323.117188 63.78125 319.578125 63.953125 C 316.558594 64.144531 313.457031 64.453125 310.289062 64.945312 C 307.125 65.445312 303.894531 66.046875 300.617188 66.773438 C 294.066406 68.21875 287.316406 70.074219 280.390625 71.886719 C 276.933594 72.777344 273.386719 73.695312 269.828125 74.644531 C 266.273438 75.589844 262.679688 76.554688 259.058594 77.492188 C 255.4375 78.445312 251.777344 79.339844 248.101562 80.210938 C 244.417969 81.039062 240.722656 81.867188 236.992188 82.53125 C 235.148438 82.90625 233.273438 83.175781 231.40625 83.476562 Z M 231.40625 83.476562 " fill-opacity="1" fill-rule="nonzero"/><path fill="#ffffff" d="M 293.210938 52.714844 C 292.175781 52.742188 291.128906 52.769531 290.089844 52.761719 C 289.492188 52.863281 288.890625 52.953125 288.28125 53.054688 C 287.742188 53.144531 287.207031 53.199219 286.671875 53.273438 C 286.132812 53.335938 285.597656 53.417969 285.058594 53.472656 C 283.984375 53.570312 282.914062 53.699219 281.839844 53.746094 C 281.300781 53.773438 280.765625 53.816406 280.230469 53.835938 C 279.691406 53.84375 279.15625 53.863281 278.628906 53.871094 C 278.363281 53.871094 278.089844 53.890625 277.828125 53.882812 L 277.027344 53.863281 C 276.488281 53.855469 275.960938 53.84375 275.433594 53.835938 C 274.898438 53.808594 274.359375 53.78125 273.824219 53.753906 C 273.285156 53.726562 272.75 53.699219 272.222656 53.664062 C 272.09375 53.652344 271.976562 53.644531 271.847656 53.636719 C 271.867188 53.636719 271.875 53.625 271.894531 53.625 C 272.375 53.535156 272.96875 53.515625 273.640625 53.535156 C 273.039062 53.507812 272.441406 53.460938 271.839844 53.398438 C 271.648438 53.453125 271.484375 53.527344 271.332031 53.597656 C 271.101562 53.582031 270.867188 53.570312 270.640625 53.554688 C 270.113281 53.507812 269.582031 53.460938 269.054688 53.417969 L 268.265625 53.34375 L 267.480469 53.253906 C 266.964844 53.191406 266.445312 53.144531 265.925781 53.0625 C 263.871094 52.789062 261.859375 52.390625 259.929688 51.863281 C 259.695312 51.789062 259.449219 51.726562 259.210938 51.652344 C 258.976562 51.578125 258.730469 51.523438 258.503906 51.433594 C 258.039062 51.269531 257.566406 51.105469 257.101562 50.953125 C 256.644531 50.769531 256.191406 50.578125 255.746094 50.398438 C 255.519531 50.304688 255.300781 50.207031 255.082031 50.097656 C 254.863281 49.988281 254.644531 49.886719 254.425781 49.777344 C 254.207031 49.667969 253.988281 49.578125 253.78125 49.460938 C 253.570312 49.339844 253.363281 49.222656 253.152344 49.105469 C 252.734375 48.867188 252.316406 48.648438 251.914062 48.375 C 251.515625 48.121094 251.105469 47.875 250.722656 47.601562 C 250.339844 47.332031 249.957031 47.058594 249.578125 46.785156 C 249.386719 46.648438 249.203125 46.503906 249.023438 46.355469 C 248.839844 46.210938 248.65625 46.066406 248.476562 45.921875 C 248.292969 45.773438 248.113281 45.628906 247.929688 45.484375 C 247.746094 45.339844 247.574219 45.183594 247.402344 45.027344 C 247.054688 44.726562 246.703125 44.417969 246.355469 44.117188 C 246.191406 43.964844 246.039062 43.808594 245.875 43.664062 C 245.710938 43.507812 245.554688 43.363281 245.410156 43.199219 C 245.265625 43.046875 245.109375 42.882812 244.964844 42.726562 C 244.816406 42.5625 244.683594 42.398438 244.535156 42.234375 C 244.246094 41.917969 244 41.5625 243.734375 41.234375 C 243.234375 40.542969 242.761719 39.84375 242.363281 39.113281 C 241.941406 38.394531 241.605469 37.648438 241.289062 36.914062 C 240.996094 36.167969 240.722656 35.421875 240.542969 34.664062 C 240.332031 33.917969 240.207031 33.164062 240.085938 32.4375 C 240.050781 32.0625 240.003906 31.699219 239.988281 31.335938 C 239.976562 30.972656 239.941406 30.617188 239.960938 30.261719 C 239.96875 28.84375 240.160156 27.496094 240.503906 26.269531 C 240.851562 25.039062 241.351562 23.929688 241.941406 22.964844 C 242.535156 22 243.207031 21.171875 243.898438 20.453125 C 244.582031 19.734375 245.363281 19.117188 246.15625 18.542969 C 246.363281 18.40625 246.566406 18.269531 246.773438 18.132812 C 246.875 18.0625 246.972656 17.996094 247.082031 17.941406 L 247.394531 17.769531 C 247.59375 17.644531 247.8125 17.542969 248.019531 17.441406 L 248.339844 17.289062 L 248.667969 17.152344 C 249.539062 16.777344 250.460938 16.496094 251.386719 16.304688 C 252.316406 16.113281 253.261719 15.988281 254.207031 15.941406 C 256.101562 15.851562 257.984375 16.003906 259.785156 16.378906 C 260.6875 16.570312 261.566406 16.796875 262.414062 17.085938 C 262.84375 17.222656 263.261719 17.386719 263.667969 17.550781 C 263.878906 17.632812 264.078125 17.726562 264.28125 17.816406 C 264.480469 17.90625 264.6875 17.988281 264.878906 18.089844 C 268.046875 19.582031 270.628906 21.863281 272.105469 24.546875 C 272.1875 24.722656 272.277344 24.886719 272.359375 25.058594 L 272.484375 25.3125 L 272.59375 25.566406 C 272.667969 25.742188 272.742188 25.914062 272.804688 26.085938 C 272.859375 26.257812 272.921875 26.433594 272.976562 26.605469 L 273.058594 26.867188 C 273.085938 26.960938 273.105469 27.042969 273.121094 27.132812 C 273.167969 27.304688 273.203125 27.488281 273.25 27.660156 C 273.277344 27.832031 273.304688 28.015625 273.332031 28.1875 L 273.378906 28.453125 C 273.386719 28.542969 273.386719 28.625 273.394531 28.714844 C 273.40625 28.886719 273.421875 29.0625 273.441406 29.234375 C 273.441406 29.40625 273.441406 29.578125 273.441406 29.753906 L 273.441406 30.007812 L 273.421875 30.261719 C 273.40625 30.433594 273.394531 30.597656 273.386719 30.773438 C 273.359375 30.933594 273.332031 31.109375 273.304688 31.273438 C 273.296875 31.355469 273.277344 31.4375 273.269531 31.519531 L 273.214844 31.761719 C 273.175781 31.925781 273.140625 32.082031 273.09375 32.246094 C 273.050781 32.398438 272.996094 32.554688 272.949219 32.710938 C 272.921875 32.78125 272.90625 32.863281 272.878906 32.9375 L 272.785156 33.164062 C 272.722656 33.308594 272.667969 33.464844 272.605469 33.609375 C 272.53125 33.753906 272.46875 33.890625 272.394531 34.039062 L 272.296875 34.246094 C 272.257812 34.320312 272.214844 34.382812 272.175781 34.449219 C 272.09375 34.582031 272.023438 34.710938 271.941406 34.847656 C 271.859375 34.976562 271.765625 35.101562 271.683594 35.21875 C 271.523438 35.476562 271.332031 35.703125 271.148438 35.929688 C 270.402344 36.839844 269.511719 37.523438 268.621094 38.042969 C 267.71875 38.550781 266.800781 38.859375 265.925781 39.015625 C 265.054688 39.167969 264.226562 39.195312 263.488281 39.105469 C 263.398438 39.097656 263.304688 39.097656 263.214844 39.078125 C 263.125 39.058594 263.042969 39.050781 262.949219 39.03125 C 262.777344 39.003906 262.605469 38.976562 262.441406 38.949219 C 262.351562 38.921875 262.257812 38.90625 262.160156 38.878906 C 263.660156 38.394531 264.789062 36.996094 264.871094 35.292969 C 264.980469 33.117188 263.34375 31.289062 261.222656 31.191406 C 259.101562 31.097656 257.300781 32.78125 257.191406 34.957031 C 257.101562 36.902344 258.394531 38.570312 260.183594 38.96875 C 260.265625 39.023438 260.339844 39.078125 260.429688 39.132812 C 260.667969 39.261719 260.921875 39.398438 261.203125 39.550781 C 261.484375 39.6875 261.8125 39.816406 262.152344 39.953125 C 262.324219 40.007812 262.503906 40.0625 262.695312 40.117188 C 262.789062 40.144531 262.886719 40.171875 262.988281 40.199219 C 263.085938 40.226562 263.1875 40.242188 263.289062 40.261719 C 264.097656 40.453125 265.054688 40.523438 266.082031 40.433594 C 267.109375 40.34375 268.226562 40.0625 269.339844 39.542969 C 270.4375 39.015625 271.550781 38.257812 272.511719 37.222656 C 272.75 36.957031 272.996094 36.703125 273.214844 36.402344 C 273.324219 36.257812 273.441406 36.113281 273.550781 35.964844 C 273.652344 35.8125 273.75 35.65625 273.859375 35.503906 C 273.914062 35.421875 273.960938 35.347656 274.015625 35.265625 L 274.152344 35.019531 C 274.242188 34.855469 274.332031 34.683594 274.433594 34.519531 C 274.515625 34.347656 274.597656 34.164062 274.679688 33.992188 L 274.796875 33.730469 C 274.832031 33.636719 274.871094 33.546875 274.90625 33.445312 C 274.980469 33.253906 275.042969 33.074219 275.117188 32.882812 C 275.171875 32.691406 275.226562 32.492188 275.289062 32.300781 L 275.371094 32 C 275.398438 31.898438 275.414062 31.800781 275.433594 31.699219 C 275.46875 31.5 275.515625 31.289062 275.550781 31.089844 C 275.578125 30.878906 275.605469 30.671875 275.632812 30.460938 L 275.671875 30.144531 L 275.6875 29.824219 C 275.699219 29.605469 275.707031 29.398438 275.714844 29.179688 C 275.707031 28.960938 275.699219 28.742188 275.6875 28.523438 C 275.679688 28.414062 275.679688 28.304688 275.671875 28.195312 L 275.632812 27.871094 C 275.605469 27.652344 275.578125 27.433594 275.550781 27.214844 C 275.507812 26.996094 275.460938 26.777344 275.425781 26.558594 C 275.398438 26.449219 275.378906 26.339844 275.351562 26.230469 L 275.261719 25.902344 C 275.199219 25.6875 275.132812 25.46875 275.070312 25.25 C 274.988281 25.039062 274.914062 24.820312 274.832031 24.613281 L 274.714844 24.292969 L 274.570312 23.984375 C 274.46875 23.773438 274.378906 23.566406 274.277344 23.355469 C 273.851562 22.546875 273.367188 21.738281 272.785156 21 C 272.511719 20.617188 272.1875 20.273438 271.886719 19.910156 C 271.722656 19.734375 271.558594 19.5625 271.394531 19.398438 C 271.230469 19.226562 271.058594 19.054688 270.882812 18.898438 C 270.710938 18.734375 270.53125 18.570312 270.355469 18.417969 C 270.175781 18.261719 269.984375 18.117188 269.800781 17.960938 L 269.519531 17.734375 L 269.230469 17.515625 C 269.027344 17.371094 268.835938 17.234375 268.636719 17.089844 C 268.4375 16.953125 268.226562 16.824219 268.027344 16.6875 L 267.71875 16.488281 L 267.398438 16.304688 C 267.191406 16.1875 266.972656 16.058594 266.761719 15.933594 C 266.542969 15.8125 266.328125 15.703125 266.109375 15.585938 C 265.890625 15.46875 265.664062 15.367188 265.433594 15.257812 C 265.207031 15.160156 264.980469 15.050781 264.753906 14.949219 C 264.289062 14.757812 263.824219 14.566406 263.351562 14.402344 C 262.40625 14.058594 261.421875 13.785156 260.414062 13.558594 C 258.402344 13.113281 256.292969 12.894531 254.125 12.984375 C 253.042969 13.03125 251.953125 13.167969 250.859375 13.375 C 249.769531 13.59375 248.675781 13.921875 247.601562 14.367188 L 247.203125 14.53125 L 246.8125 14.722656 C 246.546875 14.851562 246.28125 14.976562 246.027344 15.132812 L 245.644531 15.351562 C 245.519531 15.421875 245.390625 15.496094 245.273438 15.578125 C 245.035156 15.742188 244.789062 15.894531 244.554688 16.058594 C 243.609375 16.734375 242.679688 17.46875 241.863281 18.335938 C 241.035156 19.191406 240.207031 20.207031 239.488281 21.402344 C 238.769531 22.59375 238.160156 23.957031 237.738281 25.46875 C 236.902344 28.46875 236.847656 32.007812 237.839844 35.484375 C 238.066406 36.359375 238.386719 37.214844 238.730469 38.078125 C 239.105469 38.921875 239.503906 39.777344 239.988281 40.597656 C 240.449219 41.425781 240.996094 42.21875 241.578125 43 C 241.878906 43.382812 242.179688 43.773438 242.507812 44.136719 C 242.671875 44.320312 242.824219 44.511719 243 44.691406 C 243.171875 44.863281 243.34375 45.046875 243.515625 45.230469 C 243.691406 45.410156 243.871094 45.582031 244.054688 45.746094 C 244.234375 45.921875 244.417969 46.09375 244.601562 46.257812 C 244.972656 46.574219 245.335938 46.882812 245.710938 47.203125 C 245.902344 47.359375 246.082031 47.523438 246.273438 47.675781 C 246.464844 47.832031 246.664062 47.976562 246.867188 48.132812 C 247.066406 48.285156 247.257812 48.429688 247.457031 48.585938 C 247.65625 48.742188 247.847656 48.894531 248.058594 49.03125 C 248.464844 49.324219 248.886719 49.605469 249.304688 49.894531 C 249.722656 50.179688 250.167969 50.441406 250.605469 50.714844 C 251.03125 50.996094 251.496094 51.234375 251.953125 51.480469 C 252.179688 51.605469 252.40625 51.726562 252.644531 51.851562 C 252.871094 51.980469 253.117188 52.078125 253.351562 52.1875 C 253.589844 52.296875 253.824219 52.40625 254.070312 52.515625 C 254.308594 52.625 254.542969 52.742188 254.800781 52.835938 C 255.289062 53.027344 255.78125 53.226562 256.273438 53.417969 C 256.773438 53.582031 257.28125 53.753906 257.785156 53.917969 C 258.039062 54.007812 258.292969 54.074219 258.546875 54.144531 C 258.800781 54.21875 259.066406 54.28125 259.320312 54.355469 C 261.394531 54.882812 263.515625 55.273438 265.652344 55.519531 C 266.191406 55.589844 266.726562 55.628906 267.261719 55.691406 L 268.074219 55.773438 L 268.882812 55.835938 C 269.421875 55.875 269.964844 55.910156 270.503906 55.957031 C 271.039062 55.984375 271.585938 56.011719 272.132812 56.039062 C 272.675781 56.066406 273.214844 56.082031 273.761719 56.101562 C 274.304688 56.121094 274.851562 56.136719 275.386719 56.15625 C 275.589844 56.15625 275.789062 56.15625 275.996094 56.15625 C 279 55.335938 282.785156 54.398438 287.1875 53.597656 C 289.042969 53.261719 291.09375 52.972656 293.210938 52.714844 Z M 293.210938 52.714844 " fill-opacity="1" fill-rule="nonzero"/><path fill="#ffffff" d="M 277.835938 56.15625 C 278.109375 56.15625 278.390625 56.136719 278.664062 56.128906 C 279.21875 56.109375 279.773438 56.082031 280.328125 56.066406 C 280.882812 56.039062 281.429688 55.984375 281.984375 55.9375 C 283.09375 55.863281 284.195312 55.71875 285.296875 55.589844 C 285.851562 55.527344 286.398438 55.4375 286.941406 55.355469 C 287.488281 55.273438 288.042969 55.199219 288.589844 55.101562 C 289.683594 54.910156 290.773438 54.726562 291.855469 54.492188 C 292.609375 54.34375 293.367188 54.171875 294.113281 54.007812 C 294.222656 53.5625 294.347656 53.125 294.46875 52.6875 C 294.050781 52.707031 293.640625 52.699219 293.222656 52.707031 C 291.101562 52.960938 289.054688 53.253906 287.152344 53.589844 C 282.75 54.398438 278.972656 55.328125 275.960938 56.148438 C 276.308594 56.148438 276.664062 56.148438 277.007812 56.148438 Z M 277.835938 56.15625 " fill-opacity="1" fill-rule="nonzero"/><path fill="#ffffff" d="M 330.140625 70.285156 C 320.707031 67.382812 310.417969 69.195312 301.371094 72.175781 C 290.753906 75.691406 280.902344 80.738281 270.675781 85.015625 C 260.984375 89.074219 250.449219 92.613281 239.542969 91.382812 C 238.3125 91.246094 237.09375 91.695312 236.949219 92.53125 C 236.273438 93.175781 236.574219 94.441406 237.457031 95.289062 C 244.109375 101.664062 254.789062 103.285156 264.007812 102.148438 C 273.515625 100.972656 279.765625 93.695312 285.359375 87.136719 C 285.140625 91.421875 285.660156 95.695312 289.007812 99.089844 C 290.472656 100.574219 295.441406 103.59375 292.601562 97.40625 C 289.628906 90.9375 296.257812 84.023438 301.628906 79.675781 C 308.023438 74.488281 317.476562 73.105469 325.820312 73.386719 C 326.054688 73.398438 326.265625 73.359375 326.464844 73.316406 C 327.265625 73.480469 328.078125 73.660156 328.875 73.878906 C 344.207031 78.144531 352.1875 91.410156 352.195312 105.03125 C 352.203125 115.640625 348.230469 129.859375 336.390625 134.464844 C 331.179688 136.492188 325.101562 135.027344 320.289062 132.734375 C 319.570312 132.390625 318.90625 132.007812 318.285156 131.589844 C 318.542969 130.863281 318.277344 130.324219 317.539062 129.414062 C 315.558594 126.949219 315.566406 122.890625 316.957031 119.570312 C 320.914062 121.9375 326.921875 121.816406 331.46875 120.617188 C 337.53125 119.015625 342.488281 113.246094 340.40625 108.308594 C 340.351562 107.953125 340.25 107.625 340.09375 107.324219 C 340.058594 106.722656 339.6875 106.152344 339.128906 105.757812 C 327.929688 97.980469 314.730469 103.539062 309.898438 114.484375 C 304.503906 126.710938 314.648438 136.984375 327.839844 138.996094 C 340.3125 140.886719 349.058594 131.515625 353.070312 122.101562 C 357.546875 111.589844 357.882812 98.570312 352.761719 88.136719 C 348.710938 79.949219 339.394531 73.132812 330.140625 70.285156 Z M 333.679688 113.5 C 333.726562 113.5 333.78125 113.492188 333.828125 113.492188 C 333.753906 113.546875 333.671875 113.601562 333.597656 113.65625 C 333.625 113.601562 333.652344 113.554688 333.679688 113.5 Z M 333.679688 113.5 " fill-opacity="1" fill-rule="nonzero"/><g clip-path="url(#54ad01ab93)"><path fill="#ffffff" d="M 0.332031 19.734375 C 57.277344 21.335938 137.988281 40.386719 137.988281 40.386719 C 133.011719 33.746094 137.988281 19.734375 137.988281 19.734375 Z M 0.332031 19.734375 " fill-opacity="1" fill-rule="nonzero"/></g><path fill="#ffffff" d="M 368.890625 35.257812 C 369.519531 34.867188 370.128906 34.601562 370.691406 34.375 C 371.257812 34.136719 371.828125 33.929688 372.539062 33.65625 C 372.628906 33.621094 372.722656 33.582031 372.820312 33.539062 C 372.929688 33.5 373.050781 33.464844 373.167969 33.410156 C 373.285156 33.355469 373.421875 33.308594 373.566406 33.265625 C 373.714844 33.21875 373.859375 33.144531 374.03125 33.117188 C 374.695312 32.917969 375.550781 32.765625 376.550781 32.738281 C 377.550781 32.710938 378.691406 32.820312 379.871094 33.101562 C 381.054688 33.382812 382.285156 33.847656 383.464844 34.429688 C 384.632812 35.039062 385.75 35.757812 386.761719 36.511719 C 387.25 36.894531 387.722656 37.285156 388.171875 37.660156 C 388.597656 38.050781 389.015625 38.414062 389.390625 38.761719 C 390.089844 39.433594 390.699219 40.023438 391.191406 40.496094 C 391.644531 40.917969 391.972656 41.132812 392.101562 41.070312 C 392.253906 40.996094 392.292969 40.617188 392.238281 39.980469 C 392.199219 39.660156 392.164062 39.269531 392.0625 38.832031 C 391.964844 38.394531 391.835938 37.90625 391.683594 37.367188 C 391.519531 36.832031 391.300781 36.257812 391.0625 35.640625 C 390.808594 35.03125 390.507812 34.394531 390.164062 33.71875 C 389.453125 32.398438 388.542969 31.007812 387.398438 29.671875 C 386.230469 28.351562 384.839844 27.097656 383.257812 26.050781 C 381.683594 25.003906 379.917969 24.183594 378.125 23.675781 C 376.332031 23.15625 374.523438 22.957031 372.886719 23.039062 C 371.257812 23.128906 369.820312 23.421875 368.753906 23.855469 C 366.632812 24.65625 364.75 26.09375 363.558594 27.816406 C 362.347656 29.523438 361.820312 31.390625 361.839844 32.882812 C 361.859375 34.382812 362.292969 35.519531 362.867188 36.222656 C 363.46875 36.929688 364.152344 37.230469 364.871094 37.222656 C 366.363281 37.203125 367.625 36.003906 368.890625 35.257812 Z M 368.890625 35.257812 " fill-opacity="1" fill-rule="nonzero"/><path fill="#ffffff" d="M 332.316406 33.464844 C 332.472656 33.15625 332.617188 32.863281 332.769531 32.582031 C 332.933594 32.308594 333.082031 32.046875 333.226562 31.808594 C 333.507812 31.363281 333.753906 30.972656 333.953125 30.652344 C 334.125 30.363281 334.207031 30.171875 334.152344 30.109375 C 334.097656 30.035156 333.890625 30.054688 333.554688 30.152344 C 333.390625 30.207031 333.179688 30.269531 332.960938 30.371094 C 332.742188 30.472656 332.488281 30.597656 332.226562 30.734375 C 331.953125 30.878906 331.679688 31.0625 331.371094 31.253906 C 331.078125 31.453125 330.761719 31.691406 330.449219 31.945312 C 329.824219 32.472656 329.1875 33.109375 328.59375 33.875 C 328.023438 34.636719 327.503906 35.53125 327.121094 36.484375 C 326.738281 37.441406 326.492188 38.476562 326.421875 39.488281 C 326.339844 40.496094 326.4375 41.488281 326.667969 42.355469 C 326.894531 43.21875 327.210938 43.945312 327.566406 44.464844 C 328.230469 45.511719 329.203125 46.355469 330.261719 46.800781 C 331.304688 47.257812 332.363281 47.332031 333.164062 47.15625 C 333.960938 46.984375 334.519531 46.621094 334.835938 46.238281 C 335.144531 45.839844 335.238281 45.4375 335.144531 45.054688 C 334.964844 44.273438 334.191406 43.738281 333.644531 43.144531 C 333.363281 42.855469 333.152344 42.554688 332.972656 42.28125 C 332.78125 42.007812 332.605469 41.726562 332.378906 41.371094 C 332.351562 41.324219 332.324219 41.28125 332.28125 41.234375 C 332.253906 41.179688 332.214844 41.125 332.171875 41.0625 C 332.125 41.007812 332.089844 40.933594 332.050781 40.863281 C 332.015625 40.789062 331.960938 40.714844 331.925781 40.625 C 331.742188 40.296875 331.5625 39.851562 331.441406 39.324219 C 331.316406 38.796875 331.25 38.175781 331.269531 37.511719 C 331.289062 36.847656 331.398438 36.140625 331.578125 35.449219 C 331.761719 34.765625 332.023438 34.09375 332.316406 33.464844 Z M 332.316406 33.464844 " fill-opacity="1" fill-rule="nonzero"/><path fill="#ffffff" d="M 397.867188 71.722656 C 404.71875 62.453125 408.113281 49.742188 405.519531 38.296875 C 403.484375 29.316406 395.929688 20.445312 387.515625 15.476562 C 378.925781 10.410156 368.398438 9.78125 358.820312 10.601562 C 347.574219 11.554688 336.710938 14.210938 325.65625 16.023438 C 315.183594 17.734375 304.011719 18.753906 293.585938 14.984375 C 292.410156 14.566406 291.109375 14.714844 290.765625 15.503906 C 289.953125 15.976562 289.945312 17.296875 290.617188 18.335938 C 295.660156 26.160156 305.765625 30.242188 315.082031 31.289062 C 324.699219 32.363281 332.542969 26.6875 339.566406 21.546875 C 338.347656 25.703125 337.855469 30.015625 340.351562 34.148438 C 341.441406 35.949219 345.617188 40.078125 344.269531 33.335938 C 342.871094 26.285156 351.003906 21.054688 357.28125 18.035156 C 364.777344 14.429688 374.386719 15.296875 382.511719 17.523438 C 382.738281 17.589844 382.957031 17.605469 383.167969 17.605469 C 383.921875 17.953125 384.667969 18.316406 385.394531 18.726562 C 399.453125 26.503906 404.183594 41.40625 401 54.78125 C 398.523438 65.207031 391.289062 78.238281 378.582031 79.984375 C 372.984375 80.75 366.898438 78.402344 363.167969 74.515625 C 361.996094 73.296875 361.519531 72.195312 361.019531 71.132812 C 359.648438 68.246094 360.839844 63.734375 362.984375 60.804688 C 366.316406 64.054688 372.25 65.34375 376.988281 65.234375 C 383.320312 65.082031 389.535156 60.578125 388.644531 55.238281 C 388.671875 54.882812 387.460938 52.171875 387.152344 51.550781 C 382.574219 42.316406 364.542969 44.527344 357.226562 54.152344 C 349.058594 64.898438 356.625 77.363281 369.109375 82.421875 C 380.9375 87.191406 391.726562 80.03125 397.867188 71.722656 Z M 380.855469 58.738281 C 380.902344 58.75 380.957031 58.757812 381 58.765625 C 380.917969 58.804688 380.828125 58.839844 380.738281 58.875 C 380.78125 58.832031 380.820312 58.785156 380.855469 58.738281 Z M 380.855469 58.738281 " fill-opacity="1" fill-rule="nonzero"/><path fill="#ffffff" d="M 413.835938 93.550781 C 414.0625 91.894531 413.5 90.109375 412.378906 88.898438 C 411.527344 87.972656 410.34375 87.382812 408.941406 87.425781 C 405.9375 87.527344 402.328125 90.675781 400.316406 92.65625 C 399.890625 93.085938 399.460938 93.53125 399.042969 94.003906 C 398.652344 94.496094 398.261719 95.003906 397.867188 95.523438 C 397.058594 96.570312 396.402344 97.726562 395.75 98.917969 C 395.402344 99.519531 395.113281 100.21875 394.777344 101.011719 C 394.449219 101.800781 394.074219 102.675781 393.785156 103.613281 C 393.472656 104.558594 393.136719 105.539062 392.828125 106.632812 C 392.519531 107.722656 392.265625 108.789062 392.007812 109.84375 C 391.753906 110.910156 391.519531 111.957031 391.253906 112.964844 C 390.992188 113.992188 390.71875 114.976562 390.398438 115.902344 C 389.78125 117.789062 388.960938 119.332031 388.0625 120.371094 C 387.886719 120.582031 387.734375 120.753906 387.40625 120.972656 C 387.097656 121.179688 386.714844 121.363281 386.304688 121.527344 C 385.496094 121.855469 384.59375 122.089844 383.722656 122.226562 C 381.984375 122.519531 380.308594 122.417969 379.382812 122.035156 C 378.898438 121.855469 378.617188 121.625 378.398438 121.261719 C 378.199219 120.898438 378.136719 120.40625 378.136719 119.988281 C 378.164062 119.132812 378.289062 118.550781 378.109375 118.453125 C 378.015625 118.398438 377.851562 118.441406 377.605469 118.597656 C 377.363281 118.75 377.050781 119.023438 376.714844 119.46875 C 376.398438 119.917969 376.03125 120.570312 375.960938 121.535156 C 375.871094 122.480469 376.269531 123.738281 377.050781 124.621094 C 377.816406 125.539062 378.816406 126.230469 379.890625 126.75 C 380.972656 127.277344 382.136719 127.660156 383.394531 127.921875 C 384.648438 128.1875 385.976562 128.324219 387.414062 128.277344 C 388.132812 128.25 388.890625 128.1875 389.691406 128.023438 C 390.472656 127.867188 391.417969 127.566406 392.265625 127.148438 C 397.6875 124.417969 399.652344 119.945312 402.234375 114.886719 C 405.183594 109.105469 409.03125 103.847656 412.109375 98.136719 C 412.882812 96.6875 413.617188 95.179688 413.835938 93.550781 Z M 413.835938 93.550781 " fill-opacity="1" fill-rule="nonzero"/><path fill="#ffffff" d="M 384.046875 96.433594 L 385.269531 96.425781 L 385.886719 96.40625 L 386.488281 96.324219 C 386.894531 96.261719 387.304688 96.207031 387.714844 96.140625 C 388.125 96.058594 388.542969 95.941406 388.960938 95.832031 C 389.378906 95.722656 389.796875 95.597656 390.207031 95.421875 C 390.617188 95.261719 391.035156 95.105469 391.445312 94.914062 C 392.238281 94.515625 393.039062 94.09375 393.757812 93.59375 C 395.222656 92.621094 396.441406 91.539062 397.488281 90.5 C 397.960938 90.027344 398.433594 89.546875 398.914062 89.074219 L 399.5625 88.398438 L 400.207031 87.789062 C 401.910156 86.160156 403.5625 84.871094 405.164062 83.914062 C 406.765625 83.003906 408.25 82.347656 409.304688 81.957031 C 410.371094 81.574219 410.988281 81.332031 410.988281 81.332031 C 410.988281 81.332031 410.378906 81.140625 409.234375 80.855469 C 408.078125 80.59375 406.359375 80.367188 404.148438 80.53125 C 401.953125 80.730469 399.296875 81.496094 396.742188 82.921875 L 395.765625 83.46875 L 394.839844 84.085938 L 393.902344 84.742188 L 393.054688 85.359375 C 391.945312 86.1875 390.882812 87 389.824219 87.691406 C 389.308594 88.0625 388.789062 88.34375 388.28125 88.65625 L 387.515625 89.046875 C 387.269531 89.191406 387.003906 89.300781 386.75 89.410156 C 386.488281 89.519531 386.242188 89.644531 385.976562 89.746094 L 385.175781 90.019531 L 384.777344 90.164062 L 384.394531 90.253906 L 383.628906 90.457031 C 381.59375 90.945312 379.4375 90.929688 377.542969 90.765625 C 376.589844 90.71875 375.714844 90.554688 374.921875 90.484375 C 374.160156 90.375 373.46875 90.273438 372.875 90.191406 C 371.738281 90.011719 371.09375 89.945312 371.09375 89.945312 C 371.09375 89.945312 371.546875 90.410156 372.410156 91.191406 C 372.847656 91.574219 373.402344 92.03125 374.050781 92.546875 C 374.730469 93.023438 375.488281 93.621094 376.441406 94.132812 C 378.296875 95.207031 380.828125 96.316406 384.046875 96.433594 Z M 384.046875 96.433594 " fill-opacity="1" fill-rule="nonzero"/><path fill="#ffffff" d="M 593.28125 86.015625 C 595.164062 86.417969 597.074219 86.734375 598.976562 87.070312 C 599.921875 87.253906 600.886719 87.363281 601.84375 87.515625 C 602.796875 87.652344 603.753906 87.816406 604.71875 87.925781 C 606.636719 88.144531 608.558594 88.398438 610.496094 88.527344 C 611.460938 88.601562 612.421875 88.691406 613.386719 88.746094 C 614.351562 88.78125 615.316406 88.828125 616.289062 88.863281 C 616.773438 88.882812 617.253906 88.910156 617.738281 88.910156 L 619.183594 88.910156 C 620.148438 88.910156 621.113281 88.898438 622.078125 88.898438 C 623.023438 88.871094 623.980469 88.835938 624.925781 88.808594 C 625.871094 88.78125 626.816406 88.746094 627.761719 88.699219 C 628.710938 88.65625 629.65625 88.609375 630.601562 88.5625 C 631.546875 88.5 632.496094 88.425781 633.429688 88.363281 L 634.84375 88.261719 L 636.253906 88.128906 C 637.1875 88.027344 638.125 87.953125 639.0625 87.828125 C 642.804688 87.390625 646.503906 86.714844 650.117188 85.789062 C 650.574219 85.671875 651.019531 85.542969 651.464844 85.425781 C 651.910156 85.296875 652.363281 85.1875 652.800781 85.035156 C 653.683594 84.742188 654.566406 84.453125 655.449219 84.160156 C 656.3125 83.824219 657.167969 83.488281 658.023438 83.148438 C 658.453125 82.988281 658.871094 82.796875 659.289062 82.605469 C 659.707031 82.414062 660.117188 82.222656 660.535156 82.023438 C 660.945312 81.820312 661.371094 81.648438 661.773438 81.429688 C 662.171875 81.210938 662.574219 81.003906 662.972656 80.785156 C 663.773438 80.355469 664.574219 79.9375 665.328125 79.449219 C 666.09375 78.972656 666.867188 78.519531 667.605469 78.027344 C 668.332031 77.519531 669.058594 77.019531 669.777344 76.519531 C 670.144531 76.273438 670.488281 76 670.835938 75.734375 C 671.179688 75.472656 671.527344 75.199219 671.871094 74.933594 C 672.21875 74.671875 672.554688 74.40625 672.898438 74.144531 C 673.238281 73.878906 673.554688 73.589844 673.882812 73.316406 C 674.539062 72.761719 675.183594 72.214844 675.828125 71.660156 C 676.148438 71.378906 676.464844 71.066406 676.785156 70.765625 C 677.101562 70.46875 677.421875 70.175781 677.722656 69.859375 C 678.023438 69.546875 678.324219 69.238281 678.621094 68.929688 C 678.921875 68.621094 679.195312 68.285156 679.476562 67.964844 C 680.058594 67.328125 680.570312 66.644531 681.097656 65.980469 C 682.117188 64.625 683.0625 63.242188 683.882812 61.796875 C 684.726562 60.367188 685.429688 58.886719 686.074219 57.402344 C 686.675781 55.902344 687.238281 54.410156 687.640625 52.878906 C 689.359375 46.820312 689.265625 40.644531 687.8125 35.402344 C 687.085938 32.773438 686.019531 30.390625 684.765625 28.316406 C 683.507812 26.230469 682.070312 24.464844 680.625 22.972656 C 679.1875 21.453125 677.566406 20.179688 675.921875 19 C 675.503906 18.714844 675.082031 18.433594 674.664062 18.160156 C 674.464844 18.015625 674.238281 17.886719 674.011719 17.761719 L 673.335938 17.378906 C 672.890625 17.105469 672.425781 16.898438 671.972656 16.667969 L 671.28125 16.332031 L 670.578125 16.042969 C 668.714844 15.269531 666.804688 14.695312 664.894531 14.3125 C 662.984375 13.941406 661.082031 13.695312 659.1875 13.621094 C 655.414062 13.464844 651.726562 13.839844 648.214844 14.621094 C 646.460938 15.011719 644.742188 15.496094 643.085938 16.097656 C 642.246094 16.378906 641.4375 16.722656 640.636719 17.050781 C 640.238281 17.214844 639.847656 17.40625 639.445312 17.589844 C 639.054688 17.769531 638.652344 17.941406 638.273438 18.152344 C 637.890625 18.351562 637.507812 18.550781 637.125 18.753906 C 636.753906 18.960938 636.378906 19.179688 636.007812 19.398438 L 635.453125 19.71875 L 634.914062 20.0625 C 634.558594 20.300781 634.203125 20.527344 633.839844 20.761719 C 633.496094 21.007812 633.148438 21.265625 632.8125 21.507812 L 632.304688 21.882812 L 631.8125 22.28125 C 631.484375 22.546875 631.167969 22.820312 630.839844 23.082031 C 630.53125 23.367188 630.21875 23.648438 629.910156 23.929688 C 629.601562 24.203125 629.300781 24.503906 629.019531 24.804688 C 628.726562 25.101562 628.4375 25.394531 628.15625 25.703125 C 627.617188 26.339844 627.054688 26.941406 626.582031 27.613281 C 625.5625 28.898438 624.734375 30.316406 623.980469 31.726562 C 623.804688 32.089844 623.640625 32.453125 623.46875 32.820312 L 623.222656 33.363281 L 623.015625 33.929688 C 622.878906 34.300781 622.730469 34.675781 622.59375 35.046875 C 622.488281 35.429688 622.378906 35.8125 622.269531 36.183594 L 622.105469 36.75 C 622.058594 36.941406 622.023438 37.132812 621.984375 37.324219 C 621.914062 37.703125 621.832031 38.085938 621.757812 38.46875 C 621.703125 38.851562 621.660156 39.234375 621.613281 39.613281 L 621.550781 40.1875 C 621.53125 40.378906 621.53125 40.570312 621.523438 40.761719 C 621.503906 41.144531 621.496094 41.515625 621.476562 41.898438 C 621.496094 42.273438 621.503906 42.652344 621.523438 43.027344 L 621.550781 43.582031 L 621.613281 44.136719 C 621.660156 44.5 621.703125 44.863281 621.75 45.230469 C 621.824219 45.582031 621.894531 45.9375 621.96875 46.292969 C 622.003906 46.464844 622.039062 46.648438 622.078125 46.820312 L 622.222656 47.339844 C 622.324219 47.683594 622.414062 48.023438 622.515625 48.359375 C 622.632812 48.6875 622.757812 49.011719 622.878906 49.339844 C 622.941406 49.503906 622.996094 49.667969 623.058594 49.824219 L 623.269531 50.289062 C 623.414062 50.597656 623.550781 50.90625 623.695312 51.214844 C 623.859375 51.507812 624.023438 51.808594 624.179688 52.097656 L 624.425781 52.535156 C 624.507812 52.671875 624.605469 52.808594 624.6875 52.945312 C 624.871094 53.21875 625.042969 53.488281 625.226562 53.753906 C 625.40625 54.019531 625.617188 54.261719 625.808594 54.519531 C 626.179688 55.035156 626.617188 55.484375 627.027344 55.945312 C 628.699219 57.746094 630.636719 59.078125 632.566406 59.996094 C 634.503906 60.914062 636.453125 61.394531 638.246094 61.558594 C 640.046875 61.714844 641.691406 61.597656 643.113281 61.25 C 643.292969 61.214844 643.46875 61.179688 643.640625 61.140625 C 643.8125 61.085938 643.976562 61.042969 644.140625 60.988281 C 644.46875 60.886719 644.785156 60.785156 645.097656 60.695312 C 645.6875 60.449219 646.25 60.230469 646.75 59.996094 C 647.234375 59.742188 647.679688 59.496094 648.097656 59.265625 C 648.242188 59.167969 648.390625 59.078125 648.527344 58.976562 C 651.65625 58.285156 653.921875 55.375 653.757812 51.980469 C 653.574219 48.1875 650.425781 45.246094 646.722656 45.410156 C 643.019531 45.574219 640.171875 48.777344 640.363281 52.5625 C 640.511719 55.535156 642.476562 57.976562 645.105469 58.820312 C 644.941406 58.867188 644.785156 58.902344 644.621094 58.949219 C 644.332031 58.996094 644.039062 59.050781 643.738281 59.105469 C 643.585938 59.132812 643.441406 59.160156 643.285156 59.183594 C 643.128906 59.203125 642.964844 59.210938 642.8125 59.230469 C 641.527344 59.386719 640.089844 59.339844 638.5625 59.078125 C 637.042969 58.804688 635.433594 58.257812 633.867188 57.375 C 632.304688 56.484375 630.757812 55.28125 629.457031 53.699219 C 629.136719 53.300781 628.792969 52.90625 628.507812 52.460938 C 628.363281 52.242188 628.199219 52.035156 628.0625 51.808594 C 627.925781 51.578125 627.789062 51.34375 627.65625 51.105469 C 627.589844 50.988281 627.519531 50.878906 627.453125 50.75 L 627.273438 50.386719 C 627.152344 50.140625 627.027344 49.894531 626.910156 49.652344 C 626.808594 49.394531 626.699219 49.132812 626.597656 48.878906 L 626.445312 48.484375 C 626.398438 48.347656 626.363281 48.214844 626.316406 48.085938 C 626.234375 47.8125 626.144531 47.550781 626.054688 47.277344 C 625.988281 46.992188 625.917969 46.722656 625.851562 46.4375 L 625.753906 46.019531 C 625.726562 45.875 625.707031 45.730469 625.679688 45.59375 C 625.632812 45.300781 625.589844 45.011719 625.542969 44.71875 C 625.515625 44.429688 625.5 44.128906 625.472656 43.835938 L 625.433594 43.390625 L 625.433594 42.9375 C 625.433594 42.636719 625.433594 42.335938 625.433594 42.027344 C 625.460938 41.726562 625.480469 41.417969 625.507812 41.117188 C 625.515625 40.960938 625.527344 40.808594 625.542969 40.660156 L 625.617188 40.207031 C 625.671875 39.898438 625.707031 39.597656 625.761719 39.289062 C 625.835938 38.988281 625.90625 38.679688 625.980469 38.367188 C 626.015625 38.214844 626.054688 38.058594 626.089844 37.90625 L 626.234375 37.449219 C 626.335938 37.148438 626.433594 36.839844 626.535156 36.539062 C 626.664062 36.238281 626.78125 35.941406 626.910156 35.640625 L 627.089844 35.183594 L 627.308594 34.746094 C 627.453125 34.457031 627.609375 34.15625 627.753906 33.855469 C 630.328125 29.179688 634.832031 25.195312 640.363281 22.582031 C 640.703125 22.410156 641.054688 22.253906 641.410156 22.101562 C 641.765625 21.957031 642.113281 21.78125 642.476562 21.644531 C 643.203125 21.375 643.921875 21.074219 644.667969 20.84375 C 646.152344 20.335938 647.6875 19.9375 649.261719 19.609375 C 652.402344 18.953125 655.695312 18.671875 658.988281 18.835938 C 660.644531 18.917969 662.292969 19.144531 663.910156 19.472656 C 665.539062 19.800781 667.132812 20.300781 668.660156 20.945312 L 669.234375 21.183594 L 669.789062 21.453125 C 670.160156 21.636719 670.535156 21.808594 670.890625 22.027344 L 671.425781 22.335938 C 671.609375 22.4375 671.78125 22.546875 671.960938 22.664062 C 672.316406 22.902344 672.679688 23.148438 673.035156 23.382812 C 674.429688 24.394531 675.792969 25.46875 676.976562 26.722656 C 678.175781 27.960938 679.359375 29.40625 680.386719 31.097656 C 681.414062 32.78125 682.289062 34.71875 682.898438 36.867188 C 683.507812 39.003906 683.84375 41.363281 683.855469 43.835938 C 683.882812 44.457031 683.816406 45.082031 683.800781 45.710938 C 683.761719 46.347656 683.679688 46.984375 683.617188 47.628906 C 683.425781 48.914062 683.199219 50.222656 682.824219 51.523438 C 682.5 52.835938 682.027344 54.136719 681.515625 55.445312 C 680.960938 56.738281 680.371094 58.039062 679.640625 59.285156 C 678.941406 60.558594 678.121094 61.777344 677.25 62.980469 C 676.785156 63.5625 676.347656 64.171875 675.847656 64.734375 C 675.601562 65.015625 675.367188 65.316406 675.101562 65.589844 C 674.839844 65.863281 674.582031 66.144531 674.320312 66.417969 C 674.066406 66.699219 673.78125 66.964844 673.507812 67.226562 C 673.226562 67.492188 672.964844 67.757812 672.671875 68.027344 C 672.070312 68.558594 671.460938 69.085938 670.851562 69.613281 C 670.542969 69.875 670.242188 70.148438 669.933594 70.402344 C 669.617188 70.660156 669.296875 70.902344 668.980469 71.160156 C 668.660156 71.414062 668.339844 71.667969 668.023438 71.921875 C 667.703125 72.175781 667.386719 72.433594 667.050781 72.667969 C 666.386719 73.140625 665.710938 73.625 665.039062 74.105469 C 664.355469 74.570312 663.648438 75 662.957031 75.453125 C 662.265625 75.917969 661.527344 76.308594 660.800781 76.71875 C 660.433594 76.917969 660.070312 77.128906 659.699219 77.328125 C 659.335938 77.535156 658.941406 77.699219 658.570312 77.890625 C 658.1875 78.074219 657.816406 78.253906 657.433594 78.4375 C 657.050781 78.621094 656.667969 78.808594 656.277344 78.964844 C 655.496094 79.285156 654.703125 79.609375 653.910156 79.9375 C 653.101562 80.21875 652.292969 80.503906 651.472656 80.785156 C 651.074219 80.9375 650.644531 81.039062 650.226562 81.167969 C 649.808594 81.285156 649.390625 81.402344 648.972656 81.53125 C 645.605469 82.449219 642.101562 83.140625 638.507812 83.625 C 637.617188 83.761719 636.707031 83.839844 635.796875 83.949219 L 634.433594 84.105469 L 633.058594 84.234375 C 632.140625 84.316406 631.222656 84.398438 630.300781 84.46875 C 629.902344 84.496094 629.492188 84.523438 629.09375 84.550781 C 628.820312 84.414062 628.535156 84.296875 628.191406 84.1875 C 627.171875 83.859375 625.863281 83.714844 624.386719 83.605469 C 622.933594 83.523438 621.277344 83.195312 619.449219 82.941406 C 615.789062 82.429688 611.503906 81.402344 606.828125 80.09375 C 602.199219 78.621094 597.121094 76.761719 591.769531 74.796875 C 584.5 72.152344 577.625 69.804688 571.664062 68.082031 C 568.660156 67.273438 565.933594 66.5 563.476562 65.992188 C 562.257812 65.71875 561.109375 65.472656 560.0625 65.234375 C 559 65.054688 558.035156 64.890625 557.160156 64.746094 C 556.304688 64.507812 555.359375 64.234375 554.324219 63.945312 C 553.285156 63.660156 552.148438 63.390625 550.9375 63.089844 C 548.507812 62.496094 545.761719 61.832031 542.722656 61.207031 C 536.664062 59.957031 529.449219 58.683594 521.605469 58.675781 C 518.730469 58.703125 515.910156 58.820312 513.214844 59.195312 C 511.859375 59.332031 510.550781 59.613281 509.257812 59.824219 C 508.613281 59.949219 507.984375 60.105469 507.367188 60.242188 C 506.746094 60.394531 506.121094 60.503906 505.519531 60.703125 C 501.179688 61.886719 497.496094 63.644531 494.429688 65.300781 C 493.746094 65.453125 493.074219 65.628906 492.417969 65.808594 C 493.738281 64.953125 495.300781 64.015625 497.113281 63.050781 C 497.503906 62.84375 497.914062 62.625 498.324219 62.40625 C 498.742188 62.195312 499.167969 61.988281 499.605469 61.769531 C 500.46875 61.324219 501.40625 60.921875 502.351562 60.488281 C 504.273438 59.660156 506.347656 58.792969 508.558594 58.039062 C 510.777344 57.285156 513.125 56.574219 515.589844 56.027344 C 516.828125 55.753906 518.074219 55.527344 519.367188 55.355469 C 520.011719 55.28125 520.667969 55.199219 521.332031 55.128906 C 521.996094 55.054688 522.660156 55.019531 523.332031 54.964844 C 530.648438 54.445312 537.582031 54.964844 543.476562 55.589844 C 549.382812 56.265625 554.277344 57.074219 557.632812 57.667969 C 559.273438 58.167969 561.292969 58.730469 563.574219 59.503906 C 565.867188 60.277344 568.460938 61.132812 571.300781 62.050781 C 574.101562 63.089844 577.148438 64.207031 580.378906 65.363281 C 583.582031 66.609375 586.949219 67.929688 590.433594 69.285156 C 592.988281 70.320312 595.484375 71.3125 597.902344 72.257812 C 600.269531 73.195312 602.507812 74.289062 604.644531 75.34375 C 606.78125 76.398438 608.832031 77.425781 610.769531 78.347656 C 612.707031 79.265625 614.554688 80.058594 616.253906 80.730469 C 619.675781 82.039062 622.585938 82.714844 624.605469 82.949219 C 625.117188 83.003906 625.5625 83.058594 625.953125 83.085938 C 626.34375 83.09375 626.671875 83.105469 626.945312 83.113281 C 627.472656 83.121094 627.753906 83.132812 627.753906 83.132812 C 627.753906 83.132812 627.480469 83.085938 626.953125 83.003906 C 626.691406 82.960938 626.371094 82.914062 625.988281 82.851562 C 625.605469 82.769531 625.179688 82.660156 624.6875 82.550781 C 622.742188 82.066406 619.992188 81.101562 616.773438 79.519531 C 615.164062 78.710938 613.425781 77.792969 611.578125 76.746094 C 609.722656 75.691406 607.738281 74.550781 605.65625 73.371094 C 603.554688 72.195312 601.296875 70.976562 598.847656 69.921875 C 596.4375 68.902344 593.945312 67.863281 591.371094 66.820312 C 587.867188 65.4375 584.417969 64.226562 581.171875 63.050781 C 577.867188 62.015625 574.75 61.050781 571.863281 60.195312 C 568.945312 59.46875 566.257812 58.820312 563.902344 58.265625 C 561.546875 57.703125 559.472656 57.355469 557.789062 57.046875 C 556.941406 56.792969 555.988281 56.519531 554.941406 56.238281 C 554.59375 56.238281 554.242188 56.238281 553.894531 56.238281 L 553.066406 56.238281 C 552.792969 56.238281 552.511719 56.21875 552.238281 56.210938 C 551.683594 56.191406 551.128906 56.164062 550.574219 56.148438 C 550.019531 56.121094 549.472656 56.066406 548.917969 56.019531 C 547.808594 55.945312 546.707031 55.800781 545.605469 55.671875 C 545.050781 55.609375 544.503906 55.519531 543.960938 55.4375 C 543.414062 55.355469 542.859375 55.28125 542.3125 55.183594 C 541.222656 54.992188 540.128906 54.808594 539.046875 54.574219 C 538.292969 54.425781 537.535156 54.253906 536.789062 54.089844 C 536.679688 53.644531 536.554688 53.207031 536.433594 52.769531 C 536.855469 52.789062 537.261719 52.78125 537.683594 52.789062 C 533.195312 52.253906 528.3125 51.953125 523.152344 52.316406 C 522.453125 52.378906 521.761719 52.417969 521.070312 52.5 C 520.386719 52.589844 519.703125 52.671875 519.019531 52.761719 C 517.664062 52.960938 516.320312 53.234375 515.035156 53.554688 C 512.460938 54.199219 510.050781 55.035156 507.804688 55.9375 C 505.554688 56.839844 503.492188 57.855469 501.589844 58.847656 C 500.652344 59.375 499.734375 59.847656 498.886719 60.378906 C 498.460938 60.632812 498.039062 60.886719 497.632812 61.132812 C 497.230469 61.394531 496.839844 61.652344 496.457031 61.898438 C 493.972656 63.523438 492.019531 65.082031 490.5625 66.363281 C 489.460938 66.726562 488.398438 67.136719 487.394531 67.601562 C 485.613281 68.421875 484.003906 69.449219 482.65625 70.667969 C 482.828125 70.875 482.992188 71.105469 483.128906 71.367188 C 483.15625 71.414062 483.183594 71.449219 483.203125 71.484375 C 484.503906 70.359375 486.078125 69.410156 487.839844 68.65625 C 488.003906 68.582031 488.179688 68.527344 488.34375 68.464844 C 488.207031 68.609375 488.070312 68.746094 487.960938 68.867188 C 487.824219 69.011719 487.722656 69.121094 487.632812 69.210938 C 486.921875 69.628906 486.269531 70.011719 485.703125 70.339844 C 484.574219 70.976562 483.765625 71.429688 483.3125 71.6875 C 483.320312 71.703125 483.328125 71.722656 483.347656 71.742188 C 483.828125 71.539062 484.695312 71.195312 485.886719 70.710938 C 486.839844 70.285156 488.003906 69.765625 489.351562 69.167969 C 490.699219 68.554688 492.226562 67.855469 493.910156 67.082031 C 494.3125 66.902344 494.730469 66.71875 495.148438 66.535156 C 500.015625 65.609375 505.445312 65.398438 511.1875 65.808594 C 514.136719 66.074219 517.175781 66.445312 520.277344 66.992188 C 523.378906 67.554688 526.546875 68.21875 529.777344 69.011719 C 536.226562 70.585938 542.894531 72.578125 549.820312 74.535156 C 553.285156 75.507812 556.769531 76.480469 560.308594 77.5 C 563.847656 78.519531 567.425781 79.554688 571.046875 80.566406 C 574.65625 81.59375 578.332031 82.566406 582.027344 83.515625 C 585.765625 84.378906 589.496094 85.277344 593.28125 86.015625 Z M 489.859375 67.835938 C 489.5625 68.011719 489.269531 68.183594 488.996094 68.347656 C 488.625 68.566406 488.277344 68.773438 487.941406 68.976562 C 487.976562 68.9375 488.015625 68.921875 488.058594 68.882812 C 488.296875 68.691406 488.597656 68.449219 488.960938 68.164062 C 489.25 68.054688 489.5625 67.9375 489.859375 67.835938 Z M 593.890625 82.539062 C 590.160156 81.886719 586.464844 81.058594 582.78125 80.21875 C 579.105469 79.347656 575.449219 78.445312 571.828125 77.5 C 568.207031 76.5625 564.613281 75.597656 561.054688 74.652344 C 557.496094 73.707031 553.949219 72.789062 550.492188 71.894531 C 543.558594 70.085938 536.816406 68.230469 530.265625 66.78125 C 526.992188 66.054688 523.761719 65.453125 520.59375 64.953125 C 517.429688 64.460938 514.328125 64.152344 511.304688 63.960938 C 507.765625 63.789062 504.34375 63.863281 501.097656 64.171875 C 502.664062 63.652344 504.320312 63.179688 506.054688 62.804688 C 506.628906 62.644531 507.238281 62.570312 507.847656 62.453125 C 508.457031 62.34375 509.066406 62.214844 509.6875 62.125 C 510.941406 61.96875 512.207031 61.742188 513.515625 61.640625 C 516.117188 61.351562 518.839844 61.277344 521.632812 61.25 C 529.21875 61.261719 536.335938 62.1875 542.421875 63.035156 C 545.460938 63.460938 548.253906 63.90625 550.710938 64.269531 C 551.9375 64.460938 553.09375 64.617188 554.148438 64.800781 C 555.203125 64.980469 556.167969 65.144531 557.035156 65.289062 C 557.878906 65.527344 558.824219 65.789062 559.855469 66.082031 C 560.875 66.410156 561.984375 66.773438 563.164062 67.15625 C 565.550781 67.875 568.195312 68.855469 571.109375 69.859375 C 576.914062 71.949219 583.644531 74.570312 590.925781 77.226562 C 596.273438 79.191406 601.441406 80.902344 606.28125 82.1875 C 611.140625 83.285156 615.582031 84.003906 619.320312 84.1875 C 621.195312 84.277344 622.878906 84.441406 624.371094 84.371094 C 625.84375 84.324219 627.089844 84.324219 628.089844 84.515625 C 628.117188 84.515625 628.136719 84.523438 628.164062 84.53125 C 627.945312 84.550781 627.726562 84.558594 627.507812 84.578125 C 626.582031 84.640625 625.652344 84.695312 624.714844 84.734375 C 623.777344 84.777344 622.839844 84.824219 621.902344 84.871094 C 620.976562 84.886719 620.046875 84.90625 619.121094 84.925781 L 617.726562 84.953125 C 617.265625 84.960938 616.800781 84.933594 616.328125 84.925781 C 615.390625 84.90625 614.460938 84.878906 613.523438 84.859375 C 612.585938 84.824219 611.652344 84.75 610.722656 84.695312 C 608.847656 84.613281 606.972656 84.386719 605.101562 84.214844 C 604.164062 84.132812 603.226562 83.976562 602.289062 83.867188 C 601.351562 83.742188 600.414062 83.652344 599.476562 83.488281 C 597.621094 83.175781 595.746094 82.90625 593.890625 82.539062 Z M 593.890625 82.539062 " fill-opacity="1" fill-rule="nonzero"/><path fill="#ffffff" d="M 537.683594 52.714844 C 538.71875 52.742188 539.765625 52.769531 540.800781 52.761719 C 541.402344 52.863281 542.003906 52.953125 542.613281 53.054688 C 543.148438 53.144531 543.6875 53.199219 544.222656 53.273438 C 544.761719 53.335938 545.296875 53.417969 545.832031 53.472656 C 546.90625 53.570312 547.980469 53.699219 549.054688 53.746094 C 549.589844 53.773438 550.128906 53.816406 550.664062 53.835938 C 551.203125 53.84375 551.738281 53.863281 552.265625 53.871094 C 552.53125 53.871094 552.804688 53.890625 553.066406 53.882812 L 553.867188 53.863281 C 554.402344 53.855469 554.933594 53.84375 555.460938 53.835938 C 555.996094 53.808594 556.535156 53.78125 557.070312 53.753906 C 557.605469 53.726562 558.144531 53.699219 558.671875 53.664062 C 558.796875 53.652344 558.917969 53.644531 559.042969 53.636719 C 559.027344 53.636719 559.015625 53.625 559 53.625 C 558.515625 53.535156 557.925781 53.515625 557.253906 53.535156 C 557.851562 53.507812 558.453125 53.460938 559.054688 53.398438 C 559.246094 53.453125 559.410156 53.527344 559.5625 53.597656 C 559.789062 53.582031 560.027344 53.570312 560.253906 53.554688 C 560.78125 53.507812 561.308594 53.460938 561.835938 53.417969 L 562.628906 53.34375 L 563.410156 53.253906 C 563.929688 53.191406 564.449219 53.144531 564.96875 53.0625 C 567.023438 52.789062 569.035156 52.390625 570.964844 51.863281 C 571.199219 51.789062 571.445312 51.726562 571.683594 51.652344 C 571.917969 51.578125 572.164062 51.523438 572.390625 51.433594 C 572.855469 51.269531 573.328125 51.105469 573.792969 50.953125 C 574.246094 50.769531 574.703125 50.578125 575.148438 50.398438 C 575.375 50.304688 575.59375 50.207031 575.8125 50.097656 C 576.03125 49.988281 576.25 49.886719 576.46875 49.777344 C 576.6875 49.667969 576.902344 49.578125 577.113281 49.460938 C 577.324219 49.339844 577.53125 49.222656 577.742188 49.105469 C 578.160156 48.867188 578.578125 48.648438 578.980469 48.375 C 579.378906 48.121094 579.789062 47.875 580.171875 47.601562 C 580.550781 47.332031 580.933594 47.058594 581.316406 46.785156 C 581.507812 46.648438 581.691406 46.503906 581.871094 46.355469 C 582.054688 46.210938 582.234375 46.066406 582.417969 45.921875 C 582.601562 45.773438 582.78125 45.628906 582.964844 45.484375 C 583.144531 45.339844 583.320312 45.183594 583.492188 45.027344 C 583.835938 44.726562 584.191406 44.417969 584.539062 44.117188 C 584.703125 43.964844 584.855469 43.808594 585.019531 43.664062 C 585.183594 43.507812 585.339844 43.363281 585.484375 43.199219 C 585.628906 43.046875 585.785156 42.882812 585.929688 42.726562 C 586.074219 42.5625 586.210938 42.398438 586.355469 42.234375 C 586.648438 41.917969 586.894531 41.5625 587.15625 41.234375 C 587.660156 40.542969 588.132812 39.84375 588.53125 39.113281 C 588.949219 38.394531 589.285156 37.648438 589.605469 36.914062 C 589.898438 36.167969 590.167969 35.421875 590.351562 34.664062 C 590.5625 33.917969 590.6875 33.164062 590.804688 32.4375 C 590.84375 32.0625 590.886719 31.699219 590.90625 31.335938 C 590.914062 30.972656 590.953125 30.617188 590.933594 30.261719 C 590.925781 28.84375 590.734375 27.496094 590.386719 26.269531 C 590.042969 25.039062 589.542969 23.929688 588.949219 22.964844 C 588.359375 22 587.6875 21.171875 586.996094 20.453125 C 586.3125 19.734375 585.53125 19.117188 584.738281 18.542969 C 584.527344 18.40625 584.328125 18.269531 584.117188 18.132812 C 584.019531 18.0625 583.917969 17.996094 583.808594 17.941406 L 583.5 17.769531 C 583.300781 17.644531 583.082031 17.542969 582.871094 17.441406 L 582.554688 17.289062 L 582.226562 17.152344 C 581.351562 16.777344 580.433594 16.496094 579.507812 16.304688 C 578.578125 16.113281 577.632812 15.988281 576.6875 15.941406 C 574.792969 15.851562 572.910156 16.003906 571.109375 16.378906 C 570.207031 16.570312 569.324219 16.796875 568.480469 17.085938 C 568.050781 17.222656 567.632812 17.386719 567.222656 17.550781 C 567.015625 17.632812 566.8125 17.726562 566.613281 17.816406 C 566.414062 17.90625 566.203125 17.988281 566.011719 18.089844 C 562.847656 19.582031 560.261719 21.863281 558.789062 24.546875 C 558.707031 24.722656 558.617188 24.886719 558.535156 25.058594 L 558.40625 25.3125 L 558.296875 25.566406 C 558.226562 25.742188 558.152344 25.914062 558.089844 26.085938 C 558.035156 26.257812 557.972656 26.433594 557.917969 26.605469 L 557.835938 26.867188 C 557.808594 26.960938 557.789062 27.042969 557.769531 27.132812 C 557.726562 27.304688 557.6875 27.488281 557.644531 27.660156 C 557.617188 27.832031 557.589844 28.015625 557.5625 28.1875 L 557.515625 28.453125 C 557.507812 28.542969 557.507812 28.625 557.496094 28.714844 C 557.488281 28.886719 557.46875 29.0625 557.453125 29.234375 C 557.453125 29.40625 557.453125 29.578125 557.453125 29.753906 L 557.453125 30.007812 L 557.46875 30.261719 C 557.488281 30.433594 557.496094 30.597656 557.507812 30.773438 C 557.535156 30.933594 557.5625 31.109375 557.589844 31.273438 C 557.597656 31.355469 557.617188 31.4375 557.625 31.519531 L 557.679688 31.761719 C 557.714844 31.925781 557.753906 32.082031 557.796875 32.246094 C 557.84375 32.398438 557.898438 32.554688 557.945312 32.710938 C 557.972656 32.78125 557.988281 32.863281 558.015625 32.9375 L 558.105469 33.164062 C 558.171875 33.308594 558.226562 33.464844 558.289062 33.609375 C 558.363281 33.753906 558.425781 33.890625 558.5 34.039062 L 558.597656 34.246094 C 558.636719 34.320312 558.679688 34.382812 558.714844 34.449219 C 558.796875 34.582031 558.871094 34.710938 558.953125 34.847656 C 559.035156 34.976562 559.125 35.101562 559.207031 35.21875 C 559.371094 35.476562 559.5625 35.703125 559.746094 35.929688 C 560.492188 36.839844 561.382812 37.523438 562.273438 38.042969 C 563.175781 38.550781 564.09375 38.859375 564.96875 39.015625 C 565.839844 39.167969 566.667969 39.195312 567.40625 39.105469 C 567.496094 39.097656 567.585938 39.097656 567.679688 39.078125 C 567.769531 39.058594 567.851562 39.050781 567.941406 39.03125 C 568.117188 39.003906 568.289062 38.976562 568.453125 38.949219 C 568.542969 38.921875 568.632812 38.90625 568.734375 38.878906 C 567.234375 38.394531 566.105469 36.996094 566.023438 35.292969 C 565.914062 33.117188 567.550781 31.289062 569.671875 31.191406 C 571.792969 31.097656 573.59375 32.78125 573.703125 34.957031 C 573.792969 36.902344 572.5 38.570312 570.707031 38.96875 C 570.625 39.023438 570.554688 39.078125 570.460938 39.132812 C 570.226562 39.261719 569.972656 39.398438 569.6875 39.550781 C 569.40625 39.6875 569.078125 39.816406 568.742188 39.953125 C 568.570312 40.007812 568.386719 40.0625 568.195312 40.117188 C 568.105469 40.144531 568.007812 40.171875 567.90625 40.199219 C 567.804688 40.226562 567.707031 40.242188 567.605469 40.261719 C 566.796875 40.453125 565.839844 40.523438 564.8125 40.433594 C 563.785156 40.34375 562.664062 40.0625 561.554688 39.542969 C 560.453125 39.015625 559.34375 38.257812 558.378906 37.222656 C 558.144531 36.957031 557.898438 36.703125 557.679688 36.402344 C 557.570312 36.257812 557.453125 36.113281 557.34375 35.964844 C 557.242188 35.8125 557.144531 35.65625 557.035156 35.503906 C 556.980469 35.421875 556.933594 35.347656 556.878906 35.265625 L 556.742188 35.019531 C 556.652344 34.855469 556.558594 34.683594 556.460938 34.519531 C 556.378906 34.347656 556.296875 34.164062 556.214844 33.992188 L 556.097656 33.730469 C 556.058594 33.636719 556.023438 33.546875 555.988281 33.445312 C 555.914062 33.253906 555.851562 33.074219 555.777344 32.882812 C 555.714844 32.691406 555.667969 32.492188 555.605469 32.300781 L 555.523438 32 C 555.496094 31.898438 555.476562 31.800781 555.460938 31.699219 C 555.421875 31.5 555.378906 31.289062 555.339844 31.089844 C 555.3125 30.878906 555.285156 30.671875 555.257812 30.460938 L 555.222656 30.144531 L 555.203125 29.824219 C 555.195312 29.605469 555.1875 29.398438 555.175781 29.179688 C 555.1875 28.960938 555.195312 28.742188 555.203125 28.523438 C 555.214844 28.414062 555.214844 28.304688 555.222656 28.195312 L 555.257812 27.871094 C 555.285156 27.652344 555.3125 27.433594 555.339844 27.214844 C 555.386719 26.996094 555.433594 26.777344 555.46875 26.558594 C 555.496094 26.449219 555.515625 26.339844 555.542969 26.230469 L 555.632812 25.902344 C 555.695312 25.6875 555.761719 25.46875 555.824219 25.25 C 555.90625 25.039062 555.976562 24.820312 556.058594 24.613281 L 556.179688 24.292969 L 556.324219 23.984375 C 556.425781 23.773438 556.515625 23.566406 556.613281 23.355469 C 557.042969 22.546875 557.523438 21.738281 558.105469 21 C 558.378906 20.617188 558.707031 20.273438 559.007812 19.910156 C 559.171875 19.734375 559.335938 19.5625 559.5 19.398438 C 559.664062 19.226562 559.835938 19.054688 560.007812 18.898438 C 560.179688 18.734375 560.363281 18.570312 560.535156 18.417969 C 560.71875 18.261719 560.910156 18.117188 561.089844 17.960938 L 561.375 17.734375 L 561.664062 17.515625 C 561.863281 17.371094 562.054688 17.234375 562.257812 17.089844 C 562.457031 16.953125 562.664062 16.824219 562.867188 16.6875 L 563.175781 16.488281 L 563.492188 16.304688 C 563.703125 16.1875 563.921875 16.058594 564.128906 15.933594 C 564.347656 15.8125 564.566406 15.703125 564.785156 15.585938 C 565.003906 15.46875 565.230469 15.367188 565.457031 15.257812 C 565.6875 15.160156 565.914062 15.050781 566.140625 14.949219 C 566.605469 14.757812 567.070312 14.566406 567.542969 14.402344 C 568.488281 14.058594 569.472656 13.785156 570.480469 13.558594 C 572.492188 13.113281 574.601562 12.894531 576.769531 12.984375 C 577.851562 13.03125 578.941406 13.167969 580.035156 13.375 C 581.125 13.59375 582.21875 13.921875 583.292969 14.367188 L 583.691406 14.53125 L 584.082031 14.722656 C 584.347656 14.851562 584.609375 14.976562 584.863281 15.132812 L 585.246094 15.351562 C 585.375 15.421875 585.503906 15.496094 585.621094 15.578125 C 585.855469 15.742188 586.101562 15.894531 586.339844 16.058594 C 587.285156 16.734375 588.214844 17.46875 589.03125 18.335938 C 589.859375 19.191406 590.6875 20.207031 591.40625 21.402344 C 592.125 22.59375 592.734375 23.957031 593.152344 25.46875 C 593.992188 28.46875 594.046875 32.007812 593.054688 35.484375 C 592.824219 36.359375 592.507812 37.214844 592.160156 38.078125 C 591.789062 38.921875 591.386719 39.777344 590.90625 40.597656 C 590.441406 41.425781 589.894531 42.21875 589.3125 43 C 589.015625 43.382812 588.714844 43.773438 588.386719 44.136719 C 588.222656 44.320312 588.066406 44.511719 587.894531 44.691406 C 587.722656 44.863281 587.550781 45.046875 587.375 45.230469 C 587.203125 45.410156 587.019531 45.582031 586.839844 45.746094 C 586.65625 45.921875 586.476562 46.09375 586.292969 46.257812 C 585.921875 46.574219 585.554688 46.882812 585.183594 47.203125 C 584.992188 47.359375 584.808594 47.523438 584.621094 47.675781 C 584.429688 47.832031 584.226562 47.976562 584.027344 48.132812 C 583.828125 48.285156 583.636719 48.429688 583.4375 48.585938 C 583.238281 48.742188 583.046875 48.894531 582.835938 49.03125 C 582.425781 49.324219 582.007812 49.605469 581.589844 49.894531 C 581.171875 50.179688 580.726562 50.441406 580.289062 50.714844 C 579.859375 50.996094 579.398438 51.234375 578.941406 51.480469 C 578.714844 51.605469 578.488281 51.726562 578.25 51.851562 C 578.023438 51.980469 577.777344 52.078125 577.539062 52.1875 C 577.304688 52.296875 577.066406 52.40625 576.820312 52.515625 C 576.585938 52.625 576.347656 52.742188 576.09375 52.835938 C 575.601562 53.027344 575.113281 53.226562 574.621094 53.417969 C 574.121094 53.582031 573.609375 53.753906 573.109375 53.917969 C 572.855469 54.007812 572.601562 54.074219 572.347656 54.144531 C 572.089844 54.21875 571.828125 54.28125 571.574219 54.355469 C 569.5 54.882812 567.378906 55.273438 565.238281 55.519531 C 564.703125 55.589844 564.167969 55.628906 563.628906 55.691406 L 562.820312 55.773438 L 562.011719 55.835938 C 561.472656 55.875 560.925781 55.910156 560.390625 55.957031 C 559.855469 55.984375 559.308594 56.011719 558.761719 56.039062 C 558.214844 56.066406 557.679688 56.082031 557.132812 56.101562 C 556.585938 56.121094 556.042969 56.136719 555.503906 56.15625 C 555.304688 56.15625 555.105469 56.15625 554.894531 56.15625 C 551.894531 55.335938 548.109375 54.398438 543.703125 53.597656 C 541.847656 53.261719 539.800781 52.972656 537.683594 52.714844 Z M 537.683594 52.714844 " fill-opacity="1" fill-rule="nonzero"/><path fill="#ffffff" d="M 553.058594 56.15625 C 552.785156 56.15625 552.503906 56.136719 552.230469 56.128906 C 551.675781 56.109375 551.121094 56.082031 550.566406 56.066406 C 550.011719 56.039062 549.464844 55.984375 548.910156 55.9375 C 547.800781 55.863281 546.699219 55.71875 545.597656 55.589844 C 545.042969 55.527344 544.496094 55.4375 543.949219 55.355469 C 543.40625 55.273438 542.847656 55.199219 542.304688 55.101562 C 541.210938 54.910156 540.121094 54.726562 539.039062 54.492188 C 538.28125 54.34375 537.527344 54.171875 536.78125 54.007812 C 536.671875 53.5625 536.542969 53.125 536.425781 52.6875 C 536.84375 52.707031 537.253906 52.699219 537.671875 52.707031 C 539.792969 52.960938 541.839844 53.253906 543.742188 53.589844 C 548.144531 54.398438 551.921875 55.328125 554.933594 56.148438 C 554.585938 56.148438 554.230469 56.148438 553.886719 56.148438 Z M 553.058594 56.15625 " fill-opacity="1" fill-rule="nonzero"/><path fill="#ffffff" d="M 478.160156 88.136719 C 473.03125 98.570312 473.375 111.589844 477.851562 122.101562 C 481.863281 131.515625 490.617188 140.886719 503.082031 138.996094 C 516.273438 136.992188 526.425781 126.710938 521.023438 114.484375 C 516.191406 103.539062 502.988281 97.980469 491.789062 105.757812 C 491.234375 106.152344 490.863281 106.722656 490.824219 107.324219 C 490.660156 107.625 490.570312 107.960938 490.515625 108.308594 C 488.433594 113.246094 493.390625 119.015625 499.449219 120.617188 C 504 121.816406 510.003906 121.9375 513.960938 119.570312 C 515.355469 122.890625 515.363281 126.957031 513.378906 129.414062 C 512.652344 130.324219 512.386719 130.863281 512.632812 131.589844 C 512.015625 132.007812 511.351562 132.390625 510.632812 132.734375 C 505.820312 135.039062 499.742188 136.492188 494.527344 134.464844 C 482.691406 129.871094 478.714844 115.648438 478.726562 105.03125 C 478.734375 91.421875 486.714844 78.144531 502.042969 73.878906 C 502.84375 73.652344 503.652344 73.46875 504.453125 73.316406 C 504.65625 73.359375 504.863281 73.398438 505.101562 73.386719 C 513.445312 73.105469 522.898438 74.488281 529.292969 79.675781 C 534.652344 84.023438 541.285156 90.9375 538.320312 97.40625 C 535.480469 103.59375 540.457031 100.5625 541.914062 99.089844 C 545.261719 95.6875 545.777344 91.421875 545.5625 87.136719 C 551.15625 93.695312 557.40625 100.972656 566.914062 102.148438 C 576.121094 103.285156 586.804688 101.675781 593.464844 95.289062 C 594.34375 94.441406 594.644531 93.175781 593.972656 92.53125 C 593.828125 91.695312 592.597656 91.246094 591.378906 91.382812 C 580.46875 92.621094 569.933594 89.074219 560.246094 85.015625 C 550.019531 80.730469 540.15625 75.679688 529.546875 72.175781 C 520.503906 69.195312 510.214844 67.382812 500.777344 70.285156 C 491.5 73.132812 482.183594 79.949219 478.160156 88.136719 Z M 497.304688 113.65625 C 497.222656 113.601562 497.148438 113.546875 497.074219 113.492188 C 497.121094 113.492188 497.175781 113.5 497.222656 113.5 C 497.238281 113.554688 497.265625 113.601562 497.304688 113.65625 Z M 497.304688 113.65625 " fill-opacity="1" fill-rule="nonzero"/><g clip-path="url(#7d7da06231)"><path fill="#ffffff" d="M 830.5625 19.734375 C 773.617188 21.335938 692.90625 40.386719 692.90625 40.386719 C 697.882812 33.746094 692.90625 19.734375 692.90625 19.734375 Z M 830.5625 19.734375 " fill-opacity="1" fill-rule="nonzero"/></g><g clip-path="url(#dd3f3fa982)"><path fill="#ffffff" d="M 425.855469 27.6875 C 421.617188 37.90625 420.667969 49.867188 420.558594 51.5625 C 420.558594 51.671875 420.449219 51.769531 420.40625 51.769531 L 416.4375 56.21875 C 416.175781 56.539062 415.800781 56.691406 415.429688 56.691406 C 415.109375 56.691406 414.738281 56.539062 414.472656 56.21875 L 410.507812 51.769531 C 410.398438 51.769531 410.351562 51.660156 410.351562 51.5625 C 410.242188 49.867188 409.296875 37.90625 405.054688 27.6875 C 405.054688 27.632812 413.261719 12.964844 415.066406 9.898438 C 415.171875 9.746094 415.328125 9.636719 415.4375 9.636719 C 415.59375 9.636719 415.757812 9.746094 415.8125 9.898438 C 417.648438 12.964844 425.855469 27.632812 425.855469 27.6875 Z M 425.855469 27.6875 " fill-opacity="1" fill-rule="nonzero"/></g><path fill="#ffffff" d="M 421.832031 64.371094 C 420.722656 65.855469 416.066406 73.742188 415.429688 74.796875 C 414.792969 73.742188 410.132812 65.855469 409.078125 64.371094 L 415.429688 58.339844 Z M 421.832031 64.371094 " fill-opacity="1" fill-rule="nonzero"/><path fill="#ffffff" d="M 462.003906 35.257812 C 461.375 34.867188 460.765625 34.601562 460.199219 34.375 C 459.636719 34.136719 459.0625 33.929688 458.355469 33.65625 C 458.261719 33.621094 458.171875 33.582031 458.070312 33.539062 C 457.960938 33.5 457.84375 33.464844 457.726562 33.410156 C 457.609375 33.355469 457.472656 33.308594 457.324219 33.265625 C 457.179688 33.21875 457.035156 33.144531 456.863281 33.117188 C 456.199219 32.917969 455.34375 32.765625 454.339844 32.738281 C 453.339844 32.710938 452.203125 32.820312 451.019531 33.101562 C 449.839844 33.382812 448.609375 33.847656 447.425781 34.429688 C 446.261719 35.039062 445.144531 35.757812 444.132812 36.511719 C 443.640625 36.894531 443.167969 37.285156 442.722656 37.660156 C 442.296875 38.050781 441.878906 38.414062 441.503906 38.761719 C 440.804688 39.433594 440.195312 40.023438 439.703125 40.496094 C 439.246094 40.917969 438.921875 41.132812 438.792969 41.070312 C 438.636719 40.996094 438.601562 40.617188 438.65625 39.980469 C 438.691406 39.660156 438.730469 39.269531 438.828125 38.832031 C 438.929688 38.394531 439.054688 37.90625 439.210938 37.367188 C 439.375 36.832031 439.59375 36.257812 439.828125 35.640625 C 440.085938 35.03125 440.386719 34.394531 440.730469 33.71875 C 441.441406 32.398438 442.351562 31.007812 443.496094 29.671875 C 444.660156 28.351562 446.054688 27.097656 447.636719 26.050781 C 449.210938 25.003906 450.976562 24.183594 452.769531 23.675781 C 454.558594 23.15625 456.371094 22.957031 458.007812 23.039062 C 459.636719 23.128906 461.074219 23.421875 462.140625 23.855469 C 464.257812 24.65625 466.140625 26.09375 467.332031 27.816406 C 468.542969 29.523438 469.070312 31.390625 469.054688 32.882812 C 469.035156 34.382812 468.597656 35.519531 468.023438 36.222656 C 467.425781 36.929688 466.742188 37.230469 466.023438 37.222656 C 464.53125 37.203125 463.265625 36.003906 462.003906 35.257812 Z M 462.003906 35.257812 " fill-opacity="1" fill-rule="nonzero"/><path fill="#ffffff" d="M 498.578125 33.464844 C 498.421875 33.15625 498.277344 32.863281 498.121094 32.582031 C 497.957031 32.308594 497.8125 32.046875 497.667969 31.808594 C 497.386719 31.363281 497.140625 30.972656 496.941406 30.652344 C 496.765625 30.363281 496.683594 30.171875 496.738281 30.109375 C 496.792969 30.035156 497.003906 30.054688 497.339844 30.152344 C 497.503906 30.207031 497.714844 30.269531 497.929688 30.371094 C 498.148438 30.472656 498.40625 30.597656 498.667969 30.734375 C 498.941406 30.878906 499.214844 31.0625 499.523438 31.253906 C 499.816406 31.453125 500.132812 31.691406 500.441406 31.945312 C 501.070312 32.472656 501.707031 33.109375 502.296875 33.875 C 502.871094 34.636719 503.390625 35.53125 503.773438 36.484375 C 504.15625 37.441406 504.398438 38.476562 504.472656 39.488281 C 504.554688 40.496094 504.453125 41.488281 504.226562 42.355469 C 504 43.21875 503.679688 43.945312 503.328125 44.464844 C 502.664062 45.511719 501.6875 46.355469 500.632812 46.800781 C 499.585938 47.257812 498.53125 47.332031 497.730469 47.15625 C 496.929688 46.984375 496.375 46.621094 496.058594 46.238281 C 495.746094 45.839844 495.65625 45.4375 495.746094 45.054688 C 495.929688 44.273438 496.703125 43.738281 497.25 43.144531 C 497.53125 42.855469 497.742188 42.554688 497.921875 42.28125 C 498.113281 42.007812 498.285156 41.726562 498.515625 41.371094 C 498.542969 41.324219 498.578125 41.28125 498.613281 41.234375 C 498.640625 41.179688 498.675781 41.125 498.722656 41.0625 C 498.769531 41.007812 498.804688 40.933594 498.839844 40.863281 C 498.878906 40.789062 498.933594 40.714844 498.96875 40.625 C 499.152344 40.296875 499.332031 39.851562 499.449219 39.324219 C 499.578125 38.796875 499.640625 38.175781 499.625 37.511719 C 499.605469 36.847656 499.496094 36.140625 499.3125 35.449219 C 499.132812 34.765625 498.867188 34.09375 498.578125 33.464844 Z M 498.578125 33.464844 " fill-opacity="1" fill-rule="nonzero"/><path fill="#ffffff" d="M 461.757812 82.402344 C 474.238281 77.34375 481.808594 64.871094 473.640625 54.136719 C 466.324219 44.519531 448.292969 42.300781 443.714844 51.535156 C 443.40625 52.152344 442.195312 54.855469 442.222656 55.21875 C 441.332031 60.558594 447.554688 65.054688 453.878906 65.21875 C 458.628906 65.335938 464.550781 64.042969 467.878906 60.785156 C 470.027344 63.726562 471.210938 68.230469 469.84375 71.113281 C 469.34375 72.175781 468.871094 73.277344 467.699219 74.496094 C 463.96875 78.382812 457.882812 80.738281 452.285156 79.964844 C 439.585938 78.226562 432.351562 65.191406 429.867188 54.765625 C 426.691406 41.390625 431.414062 26.488281 445.472656 18.707031 C 446.207031 18.296875 446.953125 17.933594 447.699219 17.589844 C 447.910156 17.589844 448.117188 17.570312 448.355469 17.507812 C 456.488281 15.277344 466.097656 14.421875 473.585938 18.015625 C 479.871094 21.035156 488.003906 26.269531 486.59375 33.320312 C 485.257812 40.050781 489.433594 35.921875 490.515625 34.128906 C 493.007812 30.007812 492.519531 25.695312 491.296875 21.527344 C 498.332031 26.660156 506.175781 32.34375 515.78125 31.273438 C 525.089844 30.234375 535.207031 26.140625 540.246094 18.316406 C 540.910156 17.277344 540.910156 15.96875 540.101562 15.488281 C 539.757812 14.695312 538.453125 14.550781 537.28125 14.96875 C 526.863281 18.734375 515.683594 17.726562 505.210938 16.003906 C 494.15625 14.195312 483.300781 11.546875 472.046875 10.582031 C 462.464844 9.765625 451.941406 10.402344 443.351562 15.460938 C 434.933594 20.417969 427.382812 29.296875 425.34375 38.277344 C 422.753906 49.730469 426.136719 62.433594 432.996094 71.703125 C 439.164062 80.03125 449.957031 87.191406 461.757812 82.402344 Z M 450.148438 58.867188 C 450.054688 58.832031 449.964844 58.792969 449.882812 58.757812 C 449.929688 58.75 449.984375 58.75 450.027344 58.730469 C 450.074219 58.785156 450.109375 58.832031 450.148438 58.867188 Z M 450.148438 58.867188 " fill-opacity="1" fill-rule="nonzero"/><path fill="#ffffff" d="M 422.679688 113.019531 C 422.679688 116.832031 419.558594 119.953125 415.746094 119.953125 C 415.636719 119.953125 415.539062 119.898438 415.429688 119.898438 C 415.320312 119.898438 415.273438 119.953125 415.164062 119.953125 C 411.296875 119.953125 408.230469 116.832031 408.230469 113.019531 C 408.230469 109.207031 411.296875 106.085938 415.164062 106.085938 C 415.273438 106.085938 415.320312 106.140625 415.429688 106.140625 C 415.539062 106.140625 415.636719 106.085938 415.746094 106.085938 C 419.558594 106.085938 422.679688 109.207031 422.679688 113.019531 Z M 422.679688 113.019531 " fill-opacity="1" fill-rule="nonzero"/><g clip-path="url(#98aa7162b6)"><path fill="#ffffff" d="M 421.722656 127.6875 C 421.722656 130.277344 417.539062 146.527344 415.527344 146.527344 C 415.527344 146.527344 415.472656 146.472656 415.417969 146.472656 L 415.363281 146.527344 C 413.355469 146.527344 409.167969 130.277344 409.167969 127.6875 C 409.167969 125.09375 411.816406 122.183594 415.15625 122.183594 C 415.265625 122.183594 415.308594 122.234375 415.417969 122.234375 C 415.527344 122.234375 415.628906 122.183594 415.738281 122.183594 C 419.078125 122.183594 421.722656 125.09375 421.722656 127.6875 Z M 421.722656 127.6875 " fill-opacity="1" fill-rule="nonzero"/></g><path fill="#ffffff" d="M 417.058594 93.550781 C 416.828125 91.894531 417.394531 90.109375 418.511719 88.898438 C 419.367188 87.972656 420.550781 87.382812 421.953125 87.425781 C 424.953125 87.527344 428.566406 90.675781 430.578125 92.65625 C 431.003906 93.085938 431.433594 93.53125 431.851562 94.003906 C 432.242188 94.496094 432.632812 95.003906 433.023438 95.523438 C 433.835938 96.570312 434.488281 97.726562 435.144531 98.917969 C 435.488281 99.519531 435.78125 100.21875 436.117188 101.011719 C 436.445312 101.800781 436.820312 102.675781 437.109375 103.613281 C 437.417969 104.558594 437.753906 105.539062 438.066406 106.632812 C 438.375 107.722656 438.628906 108.789062 438.882812 109.84375 C 439.136719 110.910156 439.375 111.957031 439.640625 112.964844 C 439.902344 113.992188 440.175781 114.976562 440.496094 115.902344 C 441.113281 117.789062 441.933594 119.332031 442.832031 120.371094 C 443.003906 120.582031 443.160156 120.753906 443.488281 120.972656 C 443.796875 121.179688 444.179688 121.363281 444.589844 121.527344 C 445.398438 121.855469 446.300781 122.089844 447.171875 122.226562 C 448.910156 122.519531 450.585938 122.417969 451.511719 122.035156 C 451.996094 121.855469 452.277344 121.625 452.496094 121.261719 C 452.695312 120.898438 452.757812 120.40625 452.757812 119.988281 C 452.730469 119.132812 452.605469 118.550781 452.785156 118.453125 C 452.878906 118.398438 453.039062 118.441406 453.285156 118.597656 C 453.53125 118.75 453.839844 119.023438 454.179688 119.46875 C 454.496094 119.917969 454.859375 120.570312 454.933594 121.535156 C 455.023438 122.480469 454.625 123.738281 453.839844 124.621094 C 453.078125 125.539062 452.078125 126.230469 451.003906 126.75 C 449.921875 127.277344 448.753906 127.660156 447.5 127.921875 C 446.246094 128.1875 444.917969 128.324219 443.480469 128.277344 C 442.761719 128.25 442.003906 128.1875 441.203125 128.023438 C 440.421875 127.867188 439.476562 127.566406 438.628906 127.148438 C 433.207031 124.417969 431.242188 119.945312 428.65625 114.886719 C 425.710938 109.105469 421.859375 103.847656 418.785156 98.136719 C 418.011719 96.6875 417.277344 95.179688 417.058594 93.550781 Z M 417.058594 93.550781 " fill-opacity="1" fill-rule="nonzero"/><path fill="#ffffff" d="M 446.84375 96.433594 L 445.625 96.425781 L 445.007812 96.40625 L 444.40625 96.324219 C 443.996094 96.261719 443.585938 96.207031 443.179688 96.140625 C 442.769531 96.058594 442.351562 95.941406 441.933594 95.832031 C 441.511719 95.722656 441.09375 95.597656 440.683594 95.421875 C 440.277344 95.261719 439.855469 95.105469 439.449219 94.914062 C 438.65625 94.515625 437.855469 94.09375 437.136719 93.59375 C 435.671875 92.621094 434.453125 91.539062 433.40625 90.5 C 432.933594 90.027344 432.460938 89.546875 431.976562 89.074219 L 431.332031 88.398438 L 430.6875 87.789062 C 428.984375 86.160156 427.328125 84.871094 425.726562 83.914062 C 424.125 83.003906 422.644531 82.347656 421.589844 81.957031 C 420.523438 81.574219 419.90625 81.332031 419.90625 81.332031 C 419.90625 81.332031 420.515625 81.140625 421.660156 80.855469 C 422.816406 80.59375 424.535156 80.367188 426.746094 80.53125 C 428.941406 80.730469 431.597656 81.496094 434.152344 82.921875 L 435.125 83.46875 L 436.054688 84.085938 L 436.992188 84.742188 L 437.835938 85.359375 C 438.949219 86.1875 440.011719 87 441.066406 87.691406 C 441.59375 88.0625 442.105469 88.34375 442.613281 88.65625 L 443.378906 89.046875 C 443.625 89.191406 443.886719 89.300781 444.144531 89.410156 C 444.40625 89.519531 444.652344 89.644531 444.917969 89.746094 L 445.714844 90.019531 L 446.117188 90.164062 L 446.5 90.253906 L 447.261719 90.457031 C 449.300781 90.945312 451.457031 90.929688 453.351562 90.765625 C 454.304688 90.71875 455.179688 90.554688 455.96875 90.484375 C 456.734375 90.375 457.425781 90.273438 458.015625 90.191406 C 459.15625 90.011719 459.800781 89.945312 459.800781 89.945312 C 459.800781 89.945312 459.347656 90.410156 458.480469 91.191406 C 458.042969 91.574219 457.488281 92.03125 456.84375 92.546875 C 456.160156 93.023438 455.40625 93.621094 454.449219 94.132812 C 452.59375 95.207031 450.066406 96.316406 446.84375 96.433594 Z M 446.84375 96.433594 " fill-opacity="1" fill-rule="nonzero"/></svg>